<?xml version="1.0" encoding="utf-8" standalone="no"?>
<!DOCTYPE svg PUBLIC "-//W3C//DTD SVG 1.1//EN"
  "http://www.w3.org/Graphics/SVG/1.1/DTD/svg11.dtd">
<svg xmlns:xlink="http://www.w3.org/1999/xlink" width="889.051854pt" height="423.245344pt" viewBox="0 0 889.051854 423.245344" xmlns="http://www.w3.org/2000/svg" version="1.1">
 <metadata>
  <rdf:RDF xmlns:dc="http://purl.org/dc/elements/1.1/" xmlns:cc="http://creativecommons.org/ns#" xmlns:rdf="http://www.w3.org/1999/02/22-rdf-syntax-ns#">
   <cc:Work>
    <dc:type rdf:resource="http://purl.org/dc/dcmitype/StillImage"/>
    <dc:date>2026-07-27T05:58:20.743589</dc:date>
    <dc:format>image/svg+xml</dc:format>
    <dc:creator>
     <cc:Agent>
      <dc:title>Matplotlib v3.10.8, https://matplotlib.org/</dc:title>
     </cc:Agent>
    </dc:creator>
   </cc:Work>
  </rdf:RDF>
 </metadata>
 <defs>
  <style type="text/css">*{stroke-linejoin: round; stroke-linecap: butt}</style>
 </defs>
 <g id="figure_1">
  <g id="patch_1">
   <path d="M -0 423.245344 
L 889.051854 423.245344 
L 889.051854 0 
L -0 0 
z
" style="fill: #ffffff"/>
  </g>
  <g id="axes_1">
   <g id="patch_2">
    <path d="M 60.9536 320.314144 
L 854.457544 320.314144 
L 854.457544 44.117344 
L 60.9536 44.117344 
z
" style="fill: #ffffff"/>
   </g>
   <g id="matplotlib.axis_1">
    <g id="xtick_1">
     <g id="line2d_1">
      <defs>
       <path id="m1057c30552" d="M 0 0 
L 0 3.5 
" style="stroke: #65717e; stroke-width: 0.8"/>
      </defs>
      <g>
       <use xlink:href="#m1057c30552" x="60.9536" y="320.314144" style="fill: #65717e; stroke: #65717e; stroke-width: 0.8"/>
      </g>
     </g>
     <g id="text_1">
      <!-- 2019 -->
      <g style="fill: #65717e" transform="translate(46.9561 335.672425) scale(0.11 -0.11)">
       <defs>
        <path id="DejaVuSans-32" d="M 1228 531 
L 3431 531 
L 3431 0 
L 469 0 
L 469 531 
Q 828 903 1448 1529 
Q 2069 2156 2228 2338 
Q 2531 2678 2651 2914 
Q 2772 3150 2772 3378 
Q 2772 3750 2511 3984 
Q 2250 4219 1831 4219 
Q 1534 4219 1204 4116 
Q 875 4013 500 3803 
L 500 4441 
Q 881 4594 1212 4672 
Q 1544 4750 1819 4750 
Q 2544 4750 2975 4387 
Q 3406 4025 3406 3419 
Q 3406 3131 3298 2873 
Q 3191 2616 2906 2266 
Q 2828 2175 2409 1742 
Q 1991 1309 1228 531 
z
" transform="scale(0.015625)"/>
        <path id="DejaVuSans-30" d="M 2034 4250 
Q 1547 4250 1301 3770 
Q 1056 3291 1056 2328 
Q 1056 1369 1301 889 
Q 1547 409 2034 409 
Q 2525 409 2770 889 
Q 3016 1369 3016 2328 
Q 3016 3291 2770 3770 
Q 2525 4250 2034 4250 
z
M 2034 4750 
Q 2819 4750 3233 4129 
Q 3647 3509 3647 2328 
Q 3647 1150 3233 529 
Q 2819 -91 2034 -91 
Q 1250 -91 836 529 
Q 422 1150 422 2328 
Q 422 3509 836 4129 
Q 1250 4750 2034 4750 
z
" transform="scale(0.015625)"/>
        <path id="DejaVuSans-31" d="M 794 531 
L 1825 531 
L 1825 4091 
L 703 3866 
L 703 4441 
L 1819 4666 
L 2450 4666 
L 2450 531 
L 3481 531 
L 3481 0 
L 794 0 
L 794 531 
z
" transform="scale(0.015625)"/>
        <path id="DejaVuSans-39" d="M 703 97 
L 703 672 
Q 941 559 1184 500 
Q 1428 441 1663 441 
Q 2288 441 2617 861 
Q 2947 1281 2994 2138 
Q 2813 1869 2534 1725 
Q 2256 1581 1919 1581 
Q 1219 1581 811 2004 
Q 403 2428 403 3163 
Q 403 3881 828 4315 
Q 1253 4750 1959 4750 
Q 2769 4750 3195 4129 
Q 3622 3509 3622 2328 
Q 3622 1225 3098 567 
Q 2575 -91 1691 -91 
Q 1453 -91 1209 -44 
Q 966 3 703 97 
z
M 1959 2075 
Q 2384 2075 2632 2365 
Q 2881 2656 2881 3163 
Q 2881 3666 2632 3958 
Q 2384 4250 1959 4250 
Q 1534 4250 1286 3958 
Q 1038 3666 1038 3163 
Q 1038 2656 1286 2365 
Q 1534 2075 1959 2075 
z
" transform="scale(0.015625)"/>
       </defs>
       <use xlink:href="#DejaVuSans-32"/>
       <use xlink:href="#DejaVuSans-30" transform="translate(63.623047 0)"/>
       <use xlink:href="#DejaVuSans-31" transform="translate(127.246094 0)"/>
       <use xlink:href="#DejaVuSans-39" transform="translate(190.869141 0)"/>
      </g>
     </g>
    </g>
    <g id="xtick_2">
     <g id="line2d_2">
      <g>
       <use xlink:href="#m1057c30552" x="166.734805" y="320.314144" style="fill: #65717e; stroke: #65717e; stroke-width: 0.8"/>
      </g>
     </g>
     <g id="text_2">
      <!-- 2020 -->
      <g style="fill: #65717e" transform="translate(152.737305 335.672425) scale(0.11 -0.11)">
       <use xlink:href="#DejaVuSans-32"/>
       <use xlink:href="#DejaVuSans-30" transform="translate(63.623047 0)"/>
       <use xlink:href="#DejaVuSans-32" transform="translate(127.246094 0)"/>
       <use xlink:href="#DejaVuSans-30" transform="translate(190.869141 0)"/>
      </g>
     </g>
    </g>
    <g id="xtick_3">
     <g id="line2d_3">
      <g>
       <use xlink:href="#m1057c30552" x="272.805822" y="320.314144" style="fill: #65717e; stroke: #65717e; stroke-width: 0.8"/>
      </g>
     </g>
     <g id="text_3">
      <!-- 2021 -->
      <g style="fill: #65717e" transform="translate(258.808322 335.672425) scale(0.11 -0.11)">
       <use xlink:href="#DejaVuSans-32"/>
       <use xlink:href="#DejaVuSans-30" transform="translate(63.623047 0)"/>
       <use xlink:href="#DejaVuSans-32" transform="translate(127.246094 0)"/>
       <use xlink:href="#DejaVuSans-31" transform="translate(190.869141 0)"/>
      </g>
     </g>
    </g>
    <g id="xtick_4">
     <g id="line2d_4">
      <g>
       <use xlink:href="#m1057c30552" x="378.587027" y="320.314144" style="fill: #65717e; stroke: #65717e; stroke-width: 0.8"/>
      </g>
     </g>
     <g id="text_4">
      <!-- 2022 -->
      <g style="fill: #65717e" transform="translate(364.589527 335.672425) scale(0.11 -0.11)">
       <use xlink:href="#DejaVuSans-32"/>
       <use xlink:href="#DejaVuSans-30" transform="translate(63.623047 0)"/>
       <use xlink:href="#DejaVuSans-32" transform="translate(127.246094 0)"/>
       <use xlink:href="#DejaVuSans-32" transform="translate(190.869141 0)"/>
      </g>
     </g>
    </g>
    <g id="xtick_5">
     <g id="line2d_5">
      <g>
       <use xlink:href="#m1057c30552" x="484.368232" y="320.314144" style="fill: #65717e; stroke: #65717e; stroke-width: 0.8"/>
      </g>
     </g>
     <g id="text_5">
      <!-- 2023 -->
      <g style="fill: #65717e" transform="translate(470.370732 335.672425) scale(0.11 -0.11)">
       <defs>
        <path id="DejaVuSans-33" d="M 2597 2516 
Q 3050 2419 3304 2112 
Q 3559 1806 3559 1356 
Q 3559 666 3084 287 
Q 2609 -91 1734 -91 
Q 1441 -91 1130 -33 
Q 819 25 488 141 
L 488 750 
Q 750 597 1062 519 
Q 1375 441 1716 441 
Q 2309 441 2620 675 
Q 2931 909 2931 1356 
Q 2931 1769 2642 2001 
Q 2353 2234 1838 2234 
L 1294 2234 
L 1294 2753 
L 1863 2753 
Q 2328 2753 2575 2939 
Q 2822 3125 2822 3475 
Q 2822 3834 2567 4026 
Q 2313 4219 1838 4219 
Q 1578 4219 1281 4162 
Q 984 4106 628 3988 
L 628 4550 
Q 988 4650 1302 4700 
Q 1616 4750 1894 4750 
Q 2613 4750 3031 4423 
Q 3450 4097 3450 3541 
Q 3450 3153 3228 2886 
Q 3006 2619 2597 2516 
z
" transform="scale(0.015625)"/>
       </defs>
       <use xlink:href="#DejaVuSans-32"/>
       <use xlink:href="#DejaVuSans-30" transform="translate(63.623047 0)"/>
       <use xlink:href="#DejaVuSans-32" transform="translate(127.246094 0)"/>
       <use xlink:href="#DejaVuSans-33" transform="translate(190.869141 0)"/>
      </g>
     </g>
    </g>
    <g id="xtick_6">
     <g id="line2d_6">
      <g>
       <use xlink:href="#m1057c30552" x="590.149437" y="320.314144" style="fill: #65717e; stroke: #65717e; stroke-width: 0.8"/>
      </g>
     </g>
     <g id="text_6">
      <!-- 2024 -->
      <g style="fill: #65717e" transform="translate(576.151937 335.672425) scale(0.11 -0.11)">
       <defs>
        <path id="DejaVuSans-34" d="M 2419 4116 
L 825 1625 
L 2419 1625 
L 2419 4116 
z
M 2253 4666 
L 3047 4666 
L 3047 1625 
L 3713 1625 
L 3713 1100 
L 3047 1100 
L 3047 0 
L 2419 0 
L 2419 1100 
L 313 1100 
L 313 1709 
L 2253 4666 
z
" transform="scale(0.015625)"/>
       </defs>
       <use xlink:href="#DejaVuSans-32"/>
       <use xlink:href="#DejaVuSans-30" transform="translate(63.623047 0)"/>
       <use xlink:href="#DejaVuSans-32" transform="translate(127.246094 0)"/>
       <use xlink:href="#DejaVuSans-34" transform="translate(190.869141 0)"/>
      </g>
     </g>
    </g>
    <g id="xtick_7">
     <g id="line2d_7">
      <g>
       <use xlink:href="#m1057c30552" x="696.220454" y="320.314144" style="fill: #65717e; stroke: #65717e; stroke-width: 0.8"/>
      </g>
     </g>
     <g id="text_7">
      <!-- 2025 -->
      <g style="fill: #65717e" transform="translate(682.222954 335.672425) scale(0.11 -0.11)">
       <defs>
        <path id="DejaVuSans-35" d="M 691 4666 
L 3169 4666 
L 3169 4134 
L 1269 4134 
L 1269 2991 
Q 1406 3038 1543 3061 
Q 1681 3084 1819 3084 
Q 2600 3084 3056 2656 
Q 3513 2228 3513 1497 
Q 3513 744 3044 326 
Q 2575 -91 1722 -91 
Q 1428 -91 1123 -41 
Q 819 9 494 109 
L 494 744 
Q 775 591 1075 516 
Q 1375 441 1709 441 
Q 2250 441 2565 725 
Q 2881 1009 2881 1497 
Q 2881 1984 2565 2268 
Q 2250 2553 1709 2553 
Q 1456 2553 1204 2497 
Q 953 2441 691 2322 
L 691 4666 
z
" transform="scale(0.015625)"/>
       </defs>
       <use xlink:href="#DejaVuSans-32"/>
       <use xlink:href="#DejaVuSans-30" transform="translate(63.623047 0)"/>
       <use xlink:href="#DejaVuSans-32" transform="translate(127.246094 0)"/>
       <use xlink:href="#DejaVuSans-35" transform="translate(190.869141 0)"/>
      </g>
     </g>
    </g>
    <g id="xtick_8">
     <g id="line2d_8">
      <g>
       <use xlink:href="#m1057c30552" x="802.001659" y="320.314144" style="fill: #65717e; stroke: #65717e; stroke-width: 0.8"/>
      </g>
     </g>
     <g id="text_8">
      <!-- 2026 -->
      <g style="fill: #65717e" transform="translate(788.004159 335.672425) scale(0.11 -0.11)">
       <defs>
        <path id="DejaVuSans-36" d="M 2113 2584 
Q 1688 2584 1439 2293 
Q 1191 2003 1191 1497 
Q 1191 994 1439 701 
Q 1688 409 2113 409 
Q 2538 409 2786 701 
Q 3034 994 3034 1497 
Q 3034 2003 2786 2293 
Q 2538 2584 2113 2584 
z
M 3366 4563 
L 3366 3988 
Q 3128 4100 2886 4159 
Q 2644 4219 2406 4219 
Q 1781 4219 1451 3797 
Q 1122 3375 1075 2522 
Q 1259 2794 1537 2939 
Q 1816 3084 2150 3084 
Q 2853 3084 3261 2657 
Q 3669 2231 3669 1497 
Q 3669 778 3244 343 
Q 2819 -91 2113 -91 
Q 1303 -91 875 529 
Q 447 1150 447 2328 
Q 447 3434 972 4092 
Q 1497 4750 2381 4750 
Q 2619 4750 2861 4703 
Q 3103 4656 3366 4563 
z
" transform="scale(0.015625)"/>
       </defs>
       <use xlink:href="#DejaVuSans-32"/>
       <use xlink:href="#DejaVuSans-30" transform="translate(63.623047 0)"/>
       <use xlink:href="#DejaVuSans-32" transform="translate(127.246094 0)"/>
       <use xlink:href="#DejaVuSans-36" transform="translate(190.869141 0)"/>
      </g>
     </g>
    </g>
   </g>
   <g id="matplotlib.axis_2">
    <g id="ytick_1">
     <g id="line2d_9">
      <path d="M 60.9536 301.03749 
L 854.457544 301.03749 
" clip-path="url(#p683734b0ae)" style="fill: none; stroke: #ddd8cf; stroke-opacity: 0.72; stroke-width: 0.8; stroke-linecap: square"/>
     </g>
     <g id="line2d_10">
      <defs>
       <path id="m206993efab" d="M 0 0 
L -3.5 0 
" style="stroke: #65717e; stroke-width: 0.8"/>
      </defs>
      <g>
       <use xlink:href="#m206993efab" x="60.9536" y="301.03749" style="fill: #65717e; stroke: #65717e; stroke-width: 0.8"/>
      </g>
     </g>
     <g id="text_9">
      <!-- −15 -->
      <g style="fill: #65717e" transform="translate(30.738444 305.21663) scale(0.11 -0.11)">
       <defs>
        <path id="DejaVuSans-2212" d="M 678 2272 
L 4684 2272 
L 4684 1741 
L 678 1741 
L 678 2272 
z
" transform="scale(0.015625)"/>
       </defs>
       <use xlink:href="#DejaVuSans-2212"/>
       <use xlink:href="#DejaVuSans-31" transform="translate(83.789062 0)"/>
       <use xlink:href="#DejaVuSans-35" transform="translate(147.412109 0)"/>
      </g>
     </g>
    </g>
    <g id="ytick_2">
     <g id="line2d_11">
      <path d="M 60.9536 266.639103 
L 854.457544 266.639103 
" clip-path="url(#p683734b0ae)" style="fill: none; stroke: #ddd8cf; stroke-opacity: 0.72; stroke-width: 0.8; stroke-linecap: square"/>
     </g>
     <g id="line2d_12">
      <g>
       <use xlink:href="#m206993efab" x="60.9536" y="266.639103" style="fill: #65717e; stroke: #65717e; stroke-width: 0.8"/>
      </g>
     </g>
     <g id="text_10">
      <!-- −10 -->
      <g style="fill: #65717e" transform="translate(30.738444 270.818244) scale(0.11 -0.11)">
       <use xlink:href="#DejaVuSans-2212"/>
       <use xlink:href="#DejaVuSans-31" transform="translate(83.789062 0)"/>
       <use xlink:href="#DejaVuSans-30" transform="translate(147.412109 0)"/>
      </g>
     </g>
    </g>
    <g id="ytick_3">
     <g id="line2d_13">
      <path d="M 60.9536 232.240717 
L 854.457544 232.240717 
" clip-path="url(#p683734b0ae)" style="fill: none; stroke: #ddd8cf; stroke-opacity: 0.72; stroke-width: 0.8; stroke-linecap: square"/>
     </g>
     <g id="line2d_14">
      <g>
       <use xlink:href="#m206993efab" x="60.9536" y="232.240717" style="fill: #65717e; stroke: #65717e; stroke-width: 0.8"/>
      </g>
     </g>
     <g id="text_11">
      <!-- −5 -->
      <g style="fill: #65717e" transform="translate(37.737194 236.419858) scale(0.11 -0.11)">
       <use xlink:href="#DejaVuSans-2212"/>
       <use xlink:href="#DejaVuSans-35" transform="translate(83.789062 0)"/>
      </g>
     </g>
    </g>
    <g id="ytick_4">
     <g id="line2d_15">
      <path d="M 60.9536 197.842331 
L 854.457544 197.842331 
" clip-path="url(#p683734b0ae)" style="fill: none; stroke: #ddd8cf; stroke-opacity: 0.72; stroke-width: 0.8; stroke-linecap: square"/>
     </g>
     <g id="line2d_16">
      <g>
       <use xlink:href="#m206993efab" x="60.9536" y="197.842331" style="fill: #65717e; stroke: #65717e; stroke-width: 0.8"/>
      </g>
     </g>
     <g id="text_12">
      <!-- 0 -->
      <g style="fill: #65717e" transform="translate(46.95485 202.021472) scale(0.11 -0.11)">
       <use xlink:href="#DejaVuSans-30"/>
      </g>
     </g>
    </g>
    <g id="ytick_5">
     <g id="line2d_17">
      <path d="M 60.9536 163.443945 
L 854.457544 163.443945 
" clip-path="url(#p683734b0ae)" style="fill: none; stroke: #ddd8cf; stroke-opacity: 0.72; stroke-width: 0.8; stroke-linecap: square"/>
     </g>
     <g id="line2d_18">
      <g>
       <use xlink:href="#m206993efab" x="60.9536" y="163.443945" style="fill: #65717e; stroke: #65717e; stroke-width: 0.8"/>
      </g>
     </g>
     <g id="text_13">
      <!-- 5 -->
      <g style="fill: #65717e" transform="translate(46.95485 167.623086) scale(0.11 -0.11)">
       <use xlink:href="#DejaVuSans-35"/>
      </g>
     </g>
    </g>
    <g id="ytick_6">
     <g id="line2d_19">
      <path d="M 60.9536 129.045559 
L 854.457544 129.045559 
" clip-path="url(#p683734b0ae)" style="fill: none; stroke: #ddd8cf; stroke-opacity: 0.72; stroke-width: 0.8; stroke-linecap: square"/>
     </g>
     <g id="line2d_20">
      <g>
       <use xlink:href="#m206993efab" x="60.9536" y="129.045559" style="fill: #65717e; stroke: #65717e; stroke-width: 0.8"/>
      </g>
     </g>
     <g id="text_14">
      <!-- 10 -->
      <g style="fill: #65717e" transform="translate(39.9561 133.2247) scale(0.11 -0.11)">
       <use xlink:href="#DejaVuSans-31"/>
       <use xlink:href="#DejaVuSans-30" transform="translate(63.623047 0)"/>
      </g>
     </g>
    </g>
    <g id="ytick_7">
     <g id="line2d_21">
      <path d="M 60.9536 94.647173 
L 854.457544 94.647173 
" clip-path="url(#p683734b0ae)" style="fill: none; stroke: #ddd8cf; stroke-opacity: 0.72; stroke-width: 0.8; stroke-linecap: square"/>
     </g>
     <g id="line2d_22">
      <g>
       <use xlink:href="#m206993efab" x="60.9536" y="94.647173" style="fill: #65717e; stroke: #65717e; stroke-width: 0.8"/>
      </g>
     </g>
     <g id="text_15">
      <!-- 15 -->
      <g style="fill: #65717e" transform="translate(39.9561 98.826314) scale(0.11 -0.11)">
       <use xlink:href="#DejaVuSans-31"/>
       <use xlink:href="#DejaVuSans-35" transform="translate(63.623047 0)"/>
      </g>
     </g>
    </g>
    <g id="ytick_8">
     <g id="line2d_23">
      <path d="M 60.9536 60.248787 
L 854.457544 60.248787 
" clip-path="url(#p683734b0ae)" style="fill: none; stroke: #ddd8cf; stroke-opacity: 0.72; stroke-width: 0.8; stroke-linecap: square"/>
     </g>
     <g id="line2d_24">
      <g>
       <use xlink:href="#m206993efab" x="60.9536" y="60.248787" style="fill: #65717e; stroke: #65717e; stroke-width: 0.8"/>
      </g>
     </g>
     <g id="text_16">
      <!-- 20 -->
      <g style="fill: #65717e" transform="translate(39.9561 64.427928) scale(0.11 -0.11)">
       <use xlink:href="#DejaVuSans-32"/>
       <use xlink:href="#DejaVuSans-30" transform="translate(63.623047 0)"/>
      </g>
     </g>
    </g>
    <g id="text_17">
     <!-- Variación anual, % -->
     <g style="fill: #65717e" transform="translate(24.450788 233.194728) rotate(-90) scale(0.11 -0.11)">
      <defs>
       <path id="DejaVuSans-56" d="M 1831 0 
L 50 4666 
L 709 4666 
L 2188 738 
L 3669 4666 
L 4325 4666 
L 2547 0 
L 1831 0 
z
" transform="scale(0.015625)"/>
       <path id="DejaVuSans-61" d="M 2194 1759 
Q 1497 1759 1228 1600 
Q 959 1441 959 1056 
Q 959 750 1161 570 
Q 1363 391 1709 391 
Q 2188 391 2477 730 
Q 2766 1069 2766 1631 
L 2766 1759 
L 2194 1759 
z
M 3341 1997 
L 3341 0 
L 2766 0 
L 2766 531 
Q 2569 213 2275 61 
Q 1981 -91 1556 -91 
Q 1019 -91 701 211 
Q 384 513 384 1019 
Q 384 1609 779 1909 
Q 1175 2209 1959 2209 
L 2766 2209 
L 2766 2266 
Q 2766 2663 2505 2880 
Q 2244 3097 1772 3097 
Q 1472 3097 1187 3025 
Q 903 2953 641 2809 
L 641 3341 
Q 956 3463 1253 3523 
Q 1550 3584 1831 3584 
Q 2591 3584 2966 3190 
Q 3341 2797 3341 1997 
z
" transform="scale(0.015625)"/>
       <path id="DejaVuSans-72" d="M 2631 2963 
Q 2534 3019 2420 3045 
Q 2306 3072 2169 3072 
Q 1681 3072 1420 2755 
Q 1159 2438 1159 1844 
L 1159 0 
L 581 0 
L 581 3500 
L 1159 3500 
L 1159 2956 
Q 1341 3275 1631 3429 
Q 1922 3584 2338 3584 
Q 2397 3584 2469 3576 
Q 2541 3569 2628 3553 
L 2631 2963 
z
" transform="scale(0.015625)"/>
       <path id="DejaVuSans-69" d="M 603 3500 
L 1178 3500 
L 1178 0 
L 603 0 
L 603 3500 
z
M 603 4863 
L 1178 4863 
L 1178 4134 
L 603 4134 
L 603 4863 
z
" transform="scale(0.015625)"/>
       <path id="DejaVuSans-63" d="M 3122 3366 
L 3122 2828 
Q 2878 2963 2633 3030 
Q 2388 3097 2138 3097 
Q 1578 3097 1268 2742 
Q 959 2388 959 1747 
Q 959 1106 1268 751 
Q 1578 397 2138 397 
Q 2388 397 2633 464 
Q 2878 531 3122 666 
L 3122 134 
Q 2881 22 2623 -34 
Q 2366 -91 2075 -91 
Q 1284 -91 818 406 
Q 353 903 353 1747 
Q 353 2603 823 3093 
Q 1294 3584 2113 3584 
Q 2378 3584 2631 3529 
Q 2884 3475 3122 3366 
z
" transform="scale(0.015625)"/>
       <path id="DejaVuSans-f3" d="M 1959 3097 
Q 1497 3097 1228 2736 
Q 959 2375 959 1747 
Q 959 1119 1226 758 
Q 1494 397 1959 397 
Q 2419 397 2687 759 
Q 2956 1122 2956 1747 
Q 2956 2369 2687 2733 
Q 2419 3097 1959 3097 
z
M 1959 3584 
Q 2709 3584 3137 3096 
Q 3566 2609 3566 1747 
Q 3566 888 3137 398 
Q 2709 -91 1959 -91 
Q 1206 -91 779 398 
Q 353 888 353 1747 
Q 353 2609 779 3096 
Q 1206 3584 1959 3584 
z
M 2394 5119 
L 3016 5119 
L 1998 3944 
L 1519 3944 
L 2394 5119 
z
" transform="scale(0.015625)"/>
       <path id="DejaVuSans-6e" d="M 3513 2113 
L 3513 0 
L 2938 0 
L 2938 2094 
Q 2938 2591 2744 2837 
Q 2550 3084 2163 3084 
Q 1697 3084 1428 2787 
Q 1159 2491 1159 1978 
L 1159 0 
L 581 0 
L 581 3500 
L 1159 3500 
L 1159 2956 
Q 1366 3272 1645 3428 
Q 1925 3584 2291 3584 
Q 2894 3584 3203 3211 
Q 3513 2838 3513 2113 
z
" transform="scale(0.015625)"/>
       <path id="DejaVuSans-20" transform="scale(0.015625)"/>
       <path id="DejaVuSans-75" d="M 544 1381 
L 544 3500 
L 1119 3500 
L 1119 1403 
Q 1119 906 1312 657 
Q 1506 409 1894 409 
Q 2359 409 2629 706 
Q 2900 1003 2900 1516 
L 2900 3500 
L 3475 3500 
L 3475 0 
L 2900 0 
L 2900 538 
Q 2691 219 2414 64 
Q 2138 -91 1772 -91 
Q 1169 -91 856 284 
Q 544 659 544 1381 
z
M 1991 3584 
L 1991 3584 
z
" transform="scale(0.015625)"/>
       <path id="DejaVuSans-6c" d="M 603 4863 
L 1178 4863 
L 1178 0 
L 603 0 
L 603 4863 
z
" transform="scale(0.015625)"/>
       <path id="DejaVuSans-2c" d="M 750 794 
L 1409 794 
L 1409 256 
L 897 -744 
L 494 -744 
L 750 256 
L 750 794 
z
" transform="scale(0.015625)"/>
       <path id="DejaVuSans-25" d="M 4653 2053 
Q 4381 2053 4226 1822 
Q 4072 1591 4072 1178 
Q 4072 772 4226 539 
Q 4381 306 4653 306 
Q 4919 306 5073 539 
Q 5228 772 5228 1178 
Q 5228 1588 5073 1820 
Q 4919 2053 4653 2053 
z
M 4653 2450 
Q 5147 2450 5437 2106 
Q 5728 1763 5728 1178 
Q 5728 594 5436 251 
Q 5144 -91 4653 -91 
Q 4153 -91 3862 251 
Q 3572 594 3572 1178 
Q 3572 1766 3864 2108 
Q 4156 2450 4653 2450 
z
M 1428 4353 
Q 1159 4353 1004 4120 
Q 850 3888 850 3481 
Q 850 3069 1003 2837 
Q 1156 2606 1428 2606 
Q 1700 2606 1854 2837 
Q 2009 3069 2009 3481 
Q 2009 3884 1853 4118 
Q 1697 4353 1428 4353 
z
M 4250 4750 
L 4750 4750 
L 1831 -91 
L 1331 -91 
L 4250 4750 
z
M 1428 4750 
Q 1922 4750 2215 4408 
Q 2509 4066 2509 3481 
Q 2509 2891 2217 2550 
Q 1925 2209 1428 2209 
Q 931 2209 642 2551 
Q 353 2894 353 3481 
Q 353 4063 643 4406 
Q 934 4750 1428 4750 
z
" transform="scale(0.015625)"/>
      </defs>
      <use xlink:href="#DejaVuSans-56"/>
      <use xlink:href="#DejaVuSans-61" transform="translate(60.658203 0)"/>
      <use xlink:href="#DejaVuSans-72" transform="translate(121.9375 0)"/>
      <use xlink:href="#DejaVuSans-69" transform="translate(163.050781 0)"/>
      <use xlink:href="#DejaVuSans-61" transform="translate(190.833984 0)"/>
      <use xlink:href="#DejaVuSans-63" transform="translate(252.113281 0)"/>
      <use xlink:href="#DejaVuSans-69" transform="translate(307.09375 0)"/>
      <use xlink:href="#DejaVuSans-f3" transform="translate(334.876953 0)"/>
      <use xlink:href="#DejaVuSans-6e" transform="translate(396.058594 0)"/>
      <use xlink:href="#DejaVuSans-20" transform="translate(459.4375 0)"/>
      <use xlink:href="#DejaVuSans-61" transform="translate(491.224609 0)"/>
      <use xlink:href="#DejaVuSans-6e" transform="translate(552.503906 0)"/>
      <use xlink:href="#DejaVuSans-75" transform="translate(615.882812 0)"/>
      <use xlink:href="#DejaVuSans-61" transform="translate(679.261719 0)"/>
      <use xlink:href="#DejaVuSans-6c" transform="translate(740.541016 0)"/>
      <use xlink:href="#DejaVuSans-2c" transform="translate(768.324219 0)"/>
      <use xlink:href="#DejaVuSans-20" transform="translate(800.111328 0)"/>
      <use xlink:href="#DejaVuSans-25" transform="translate(831.898438 0)"/>
     </g>
    </g>
   </g>
   <g id="line2d_25">
    <path d="M 60.9536 184.316941 
L 69.937757 195.073667 
L 78.05248 188.575114 
L 87.036637 185.5821 
L 95.730983 185.053677 
L 104.71514 191.786056 
L 113.409485 178.817749 
L 122.393642 175.889675 
L 131.3778 178.687314 
L 140.072145 229.037791 
L 149.056302 232.162764 
L 157.750648 191.472542 
L 166.734805 191.443873 
L 175.718962 179.122318 
L 184.123496 227.767034 
L 193.107654 301.644976 
L 201.801999 307.759744 
L 210.786156 293.898846 
L 219.480502 278.455579 
L 228.464659 273.596781 
L 237.448816 231.901258 
L 246.143162 207.188573 
L 255.127319 190.875055 
L 263.821665 193.927848 
L 272.805822 221.431153 
L 281.789979 212.748191 
L 289.904702 152.211204 
L 298.888859 92.686218 
L 307.583204 63.332056 
L 316.567362 57.617779 
L 325.261707 77.964617 
L 334.245864 74.237952 
L 343.230021 105.21819 
L 351.924367 106.607096 
L 360.908524 106.122218 
L 369.60287 137.637162 
L 378.587027 148.242633 
L 387.571184 163.406529 
L 395.685907 158.836935 
L 404.670064 157.218826 
L 413.36441 159.394623 
L 422.348567 178.599439 
L 431.042912 200.856209 
L 440.027069 193.474375 
L 449.011227 196.613871 
L 457.705572 210.769876 
L 466.689729 217.562833 
L 475.384075 206.534973 
L 484.368232 188.491981 
L 493.352389 196.718025 
L 501.467112 208.096844 
L 510.451269 201.262352 
L 519.145615 201.965731 
L 528.129772 197.653408 
L 536.824117 177.785724 
L 545.808275 194.964312 
L 554.792432 191.634373 
L 563.486777 181.408937 
L 572.470935 182.147389 
L 581.16528 194.112817 
L 590.149437 172.078204 
L 599.133594 157.688904 
L 607.538129 189.692253 
L 616.522286 171.042709 
L 625.216631 195.58653 
L 634.200789 202.747225 
L 642.895134 166.942299 
L 651.879291 182.472316 
L 660.863448 194.341315 
L 669.557794 177.933097 
L 678.541951 181.116179 
L 687.236297 151.129038 
L 696.220454 174.948519 
L 705.204611 195.69619 
L 713.319334 163.940083 
L 722.303491 171.165072 
L 730.997837 170.784239 
L 739.981994 174.619283 
L 748.676339 186.856518 
L 757.660496 195.987506 
L 766.644654 175.166083 
L 775.338999 183.689006 
L 784.323156 188.40895 
L 793.017502 189.127852 
L 802.001659 204.244077 
L 810.985816 199.972883 
L 819.100539 199.221198 
L 828.084696 205.947092 
" clip-path="url(#p683734b0ae)" style="fill: none; stroke: #193044; stroke-width: 2.25; stroke-linecap: square"/>
   </g>
   <g id="line2d_26">
    <path d="M 60.9536 189.909322 
L 69.937757 198.206742 
L 78.05248 197.385033 
L 87.036637 187.086291 
L 95.730983 188.116962 
L 104.71514 200.333849 
L 113.409485 179.800653 
L 122.393642 189.508925 
L 131.3778 177.128096 
L 140.072145 198.614171 
L 149.056302 221.758379 
L 157.750648 200.944275 
L 166.734805 194.906532 
L 175.718962 178.25428 
L 184.123496 191.963354 
L 193.107654 301.644976 
L 201.801999 307.759744 
L 210.786156 269.35425 
L 219.480502 265.394261 
L 228.464659 252.021371 
L 237.448816 228.779257 
L 246.143162 212.822673 
L 255.127319 184.634678 
L 263.821665 192.009557 
L 272.805822 204.869574 
L 281.789979 214.934784 
L 289.904702 175.560301 
L 298.888859 113.100287 
L 307.583204 61.884663 
L 316.567362 66.149114 
L 325.261707 57.549214 
L 334.245864 78.070285 
L 343.230021 89.715264 
L 351.924367 120.417285 
L 360.908524 116.07134 
L 369.60287 106.458719 
L 378.587027 128.085071 
L 387.571184 146.194697 
L 395.685907 154.148753 
L 404.670064 157.218826 
L 413.36441 162.113559 
L 422.348567 185.869103 
L 431.042912 192.013293 
L 440.027069 206.500871 
L 449.011227 201.200903 
L 457.705572 206.170084 
L 466.689729 210.15303 
L 475.384075 207.77512 
L 484.368232 199.122266 
L 493.352389 191.923488 
L 501.467112 195.60532 
L 510.451269 200.657393 
L 519.145615 198.308941 
L 528.129772 202.325258 
L 536.824117 193.78983 
L 545.808275 185.686696 
L 554.792432 200.572399 
L 563.486777 184.683298 
L 572.470935 182.644714 
L 581.16528 191.245658 
L 590.149437 195.741628 
L 599.133594 158.556942 
L 607.538129 194.767916 
L 616.522286 167.210777 
L 625.216631 184.690462 
L 634.200789 202.613648 
L 642.895134 196.022219 
L 651.879291 183.716325 
L 660.863448 200.188746 
L 669.557794 192.45849 
L 678.541951 193.564137 
L 687.236297 171.275734 
L 696.220454 169.931122 
L 705.204611 205.187811 
L 713.319334 185.374439 
L 722.303491 171.29295 
L 730.997837 181.002271 
L 739.981994 170.276815 
L 748.676339 183.109225 
L 757.660496 195.118443 
L 766.644654 175.977737 
L 775.338999 181.468375 
L 784.323156 189.569109 
L 793.017502 194.233169 
L 802.001659 202.631867 
L 810.985816 207.167964 
L 819.100539 193.53555 
L 828.084696 188.337845 
" clip-path="url(#p683734b0ae)" style="fill: none; stroke-dasharray: 5.735,2.48; stroke-dashoffset: 0; stroke: #b4573d; stroke-width: 1.55"/>
   </g>
   <g id="line2d_27">
    <path d="M 60.9536 179.795482 
L 69.937757 199.811314 
L 78.05248 193.725753 
L 87.036637 175.087107 
L 95.730983 187.413518 
L 104.71514 198.966912 
L 113.409485 172.903319 
L 122.393642 184.390573 
L 131.3778 177.787847 
L 140.072145 222.074363 
L 149.056302 226.817433 
L 157.750648 199.001781 
L 166.734805 198.912363 
L 175.718962 174.868327 
L 184.123496 209.252113 
L 193.107654 301.644976 
L 201.801999 307.759744 
L 210.786156 290.08931 
L 219.480502 286.982475 
L 228.464659 264.16093 
L 237.448816 217.224512 
L 246.143162 188.704218 
L 255.127319 187.670996 
L 263.821665 208.071461 
L 272.805822 211.988661 
L 281.789979 215.074502 
L 289.904702 165.377208 
L 298.888859 114.681472 
L 307.583204 73.009814 
L 316.567362 56.671744 
L 325.261707 60.005834 
L 334.245864 76.890378 
L 343.230021 106.047952 
L 351.924367 123.399468 
L 360.908524 114.752529 
L 369.60287 114.121138 
L 378.587027 146.405994 
L 387.571184 164.088845 
L 395.685907 154.17426 
L 404.670064 157.218826 
L 413.36441 157.181647 
L 422.348567 182.839022 
L 431.042912 195.975235 
L 440.027069 205.684571 
L 449.011227 206.062056 
L 457.705572 211.867347 
L 466.689729 213.079651 
L 475.384075 198.364655 
L 484.368232 193.225794 
L 493.352389 192.731094 
L 501.467112 198.009003 
L 510.451269 192.463811 
L 519.145615 202.643787 
L 528.129772 202.819595 
L 536.824117 194.248016 
L 545.808275 197.724505 
L 554.792432 197.802934 
L 563.486777 185.524033 
L 572.470935 186.365902 
L 581.16528 204.530934 
L 590.149437 187.771239 
L 599.133594 161.942895 
L 607.538129 198.957812 
L 616.522286 172.502556 
L 625.216631 186.075316 
L 634.200789 202.747225 
L 642.895134 185.407073 
L 651.879291 170.238327 
L 660.863448 194.389415 
L 669.557794 185.942344 
L 678.541951 185.749044 
L 687.236297 153.287284 
L 696.220454 168.763621 
L 705.204611 187.543643 
L 713.319334 167.961171 
L 722.303491 163.375345 
L 730.997837 169.792775 
L 739.981994 162.788228 
L 748.676339 172.156745 
L 757.660496 191.533635 
L 766.644654 174.247686 
L 775.338999 179.122604 
L 784.323156 183.959833 
L 793.017502 186.564979 
L 802.001659 198.334228 
L 810.985816 204.366087 
L 819.100539 200.883345 
L 828.084696 209.575251 
" clip-path="url(#p683734b0ae)" style="fill: none; stroke-dasharray: 1.55,2.5575; stroke-dashoffset: 0; stroke: #2b7777; stroke-width: 1.55"/>
   </g>
   <g id="line2d_28">
    <path d="M 60.9536 197.842331 
L 854.457544 197.842331 
" clip-path="url(#p683734b0ae)" style="fill: none; stroke: #73808d; stroke-width: 0.9; stroke-linecap: square"/>
   </g>
   <g id="patch_3">
    <path d="M 60.9536 320.314144 
L 60.9536 44.117344 
" style="fill: none; stroke: #ddd8cf; stroke-width: 0.8; stroke-linejoin: miter; stroke-linecap: square"/>
   </g>
   <g id="patch_4">
    <path d="M 60.9536 320.314144 
L 854.457544 320.314144 
" style="fill: none; stroke: #ddd8cf; stroke-width: 0.8; stroke-linejoin: miter; stroke-linecap: square"/>
   </g>
   <g id="text_18">
    <!-- -0.9% -->
    <g style="fill: #b4573d" transform="translate(846.779042 194.055748) scale(0.11 -0.11)">
     <defs>
      <path id="DejaVuSans-Bold-2d" d="M 347 2297 
L 2309 2297 
L 2309 1388 
L 347 1388 
L 347 2297 
z
" transform="scale(0.015625)"/>
      <path id="DejaVuSans-Bold-30" d="M 2944 2338 
Q 2944 3213 2780 3570 
Q 2616 3928 2228 3928 
Q 1841 3928 1675 3570 
Q 1509 3213 1509 2338 
Q 1509 1453 1675 1090 
Q 1841 728 2228 728 
Q 2613 728 2778 1090 
Q 2944 1453 2944 2338 
z
M 4147 2328 
Q 4147 1169 3647 539 
Q 3147 -91 2228 -91 
Q 1306 -91 806 539 
Q 306 1169 306 2328 
Q 306 3491 806 4120 
Q 1306 4750 2228 4750 
Q 3147 4750 3647 4120 
Q 4147 3491 4147 2328 
z
" transform="scale(0.015625)"/>
      <path id="DejaVuSans-Bold-2e" d="M 653 1209 
L 1778 1209 
L 1778 0 
L 653 0 
L 653 1209 
z
" transform="scale(0.015625)"/>
      <path id="DejaVuSans-Bold-39" d="M 641 103 
L 641 966 
Q 928 831 1190 764 
Q 1453 697 1709 697 
Q 2247 697 2547 995 
Q 2847 1294 2900 1881 
Q 2688 1725 2447 1647 
Q 2206 1569 1925 1569 
Q 1209 1569 770 1986 
Q 331 2403 331 3084 
Q 331 3838 820 4291 
Q 1309 4744 2131 4744 
Q 3044 4744 3544 4128 
Q 4044 3513 4044 2388 
Q 4044 1231 3459 570 
Q 2875 -91 1856 -91 
Q 1528 -91 1228 -42 
Q 928 6 641 103 
z
M 2125 2350 
Q 2441 2350 2600 2554 
Q 2759 2759 2759 3169 
Q 2759 3575 2600 3781 
Q 2441 3988 2125 3988 
Q 1809 3988 1650 3781 
Q 1491 3575 1491 3169 
Q 1491 2759 1650 2554 
Q 1809 2350 2125 2350 
z
" transform="scale(0.015625)"/>
      <path id="DejaVuSans-Bold-25" d="M 4959 1925 
Q 4738 1925 4616 1733 
Q 4494 1541 4494 1184 
Q 4494 825 4614 633 
Q 4734 441 4959 441 
Q 5184 441 5303 633 
Q 5422 825 5422 1184 
Q 5422 1541 5301 1733 
Q 5181 1925 4959 1925 
z
M 4959 2450 
Q 5541 2450 5875 2112 
Q 6209 1775 6209 1184 
Q 6209 594 5875 251 
Q 5541 -91 4959 -91 
Q 4378 -91 4042 251 
Q 3706 594 3706 1184 
Q 3706 1772 4042 2111 
Q 4378 2450 4959 2450 
z
M 2094 -91 
L 1403 -91 
L 4319 4750 
L 5013 4750 
L 2094 -91 
z
M 1453 4750 
Q 2034 4750 2367 4411 
Q 2700 4072 2700 3481 
Q 2700 2891 2367 2550 
Q 2034 2209 1453 2209 
Q 872 2209 539 2550 
Q 206 2891 206 3481 
Q 206 4072 539 4411 
Q 872 4750 1453 4750 
z
M 1453 4225 
Q 1228 4225 1106 4031 
Q 984 3838 984 3481 
Q 984 3122 1106 2926 
Q 1228 2731 1453 2731 
Q 1678 2731 1798 2926 
Q 1919 3122 1919 3481 
Q 1919 3838 1797 4031 
Q 1675 4225 1453 4225 
z
" transform="scale(0.015625)"/>
     </defs>
     <use xlink:href="#DejaVuSans-Bold-2d"/>
     <use xlink:href="#DejaVuSans-Bold-30" transform="translate(41.503906 0)"/>
     <use xlink:href="#DejaVuSans-Bold-2e" transform="translate(111.083984 0)"/>
     <use xlink:href="#DejaVuSans-Bold-39" transform="translate(149.072266 0)"/>
     <use xlink:href="#DejaVuSans-Bold-25" transform="translate(218.652344 0)"/>
    </g>
   </g>
   <g id="text_19">
    <!-- La proyección sectorial INE solo aparece cuando los indicadores requeridos están disponibles. -->
    <g style="fill: #65717e" transform="translate(60.9536 35.028752) scale(0.105 -0.105)">
     <defs>
      <path id="DejaVuSans-4c" d="M 628 4666 
L 1259 4666 
L 1259 531 
L 3531 531 
L 3531 0 
L 628 0 
L 628 4666 
z
" transform="scale(0.015625)"/>
      <path id="DejaVuSans-70" d="M 1159 525 
L 1159 -1331 
L 581 -1331 
L 581 3500 
L 1159 3500 
L 1159 2969 
Q 1341 3281 1617 3432 
Q 1894 3584 2278 3584 
Q 2916 3584 3314 3078 
Q 3713 2572 3713 1747 
Q 3713 922 3314 415 
Q 2916 -91 2278 -91 
Q 1894 -91 1617 61 
Q 1341 213 1159 525 
z
M 3116 1747 
Q 3116 2381 2855 2742 
Q 2594 3103 2138 3103 
Q 1681 3103 1420 2742 
Q 1159 2381 1159 1747 
Q 1159 1113 1420 752 
Q 1681 391 2138 391 
Q 2594 391 2855 752 
Q 3116 1113 3116 1747 
z
" transform="scale(0.015625)"/>
      <path id="DejaVuSans-6f" d="M 1959 3097 
Q 1497 3097 1228 2736 
Q 959 2375 959 1747 
Q 959 1119 1226 758 
Q 1494 397 1959 397 
Q 2419 397 2687 759 
Q 2956 1122 2956 1747 
Q 2956 2369 2687 2733 
Q 2419 3097 1959 3097 
z
M 1959 3584 
Q 2709 3584 3137 3096 
Q 3566 2609 3566 1747 
Q 3566 888 3137 398 
Q 2709 -91 1959 -91 
Q 1206 -91 779 398 
Q 353 888 353 1747 
Q 353 2609 779 3096 
Q 1206 3584 1959 3584 
z
" transform="scale(0.015625)"/>
      <path id="DejaVuSans-79" d="M 2059 -325 
Q 1816 -950 1584 -1140 
Q 1353 -1331 966 -1331 
L 506 -1331 
L 506 -850 
L 844 -850 
Q 1081 -850 1212 -737 
Q 1344 -625 1503 -206 
L 1606 56 
L 191 3500 
L 800 3500 
L 1894 763 
L 2988 3500 
L 3597 3500 
L 2059 -325 
z
" transform="scale(0.015625)"/>
      <path id="DejaVuSans-65" d="M 3597 1894 
L 3597 1613 
L 953 1613 
Q 991 1019 1311 708 
Q 1631 397 2203 397 
Q 2534 397 2845 478 
Q 3156 559 3463 722 
L 3463 178 
Q 3153 47 2828 -22 
Q 2503 -91 2169 -91 
Q 1331 -91 842 396 
Q 353 884 353 1716 
Q 353 2575 817 3079 
Q 1281 3584 2069 3584 
Q 2775 3584 3186 3129 
Q 3597 2675 3597 1894 
z
M 3022 2063 
Q 3016 2534 2758 2815 
Q 2500 3097 2075 3097 
Q 1594 3097 1305 2825 
Q 1016 2553 972 2059 
L 3022 2063 
z
" transform="scale(0.015625)"/>
      <path id="DejaVuSans-73" d="M 2834 3397 
L 2834 2853 
Q 2591 2978 2328 3040 
Q 2066 3103 1784 3103 
Q 1356 3103 1142 2972 
Q 928 2841 928 2578 
Q 928 2378 1081 2264 
Q 1234 2150 1697 2047 
L 1894 2003 
Q 2506 1872 2764 1633 
Q 3022 1394 3022 966 
Q 3022 478 2636 193 
Q 2250 -91 1575 -91 
Q 1294 -91 989 -36 
Q 684 19 347 128 
L 347 722 
Q 666 556 975 473 
Q 1284 391 1588 391 
Q 1994 391 2212 530 
Q 2431 669 2431 922 
Q 2431 1156 2273 1281 
Q 2116 1406 1581 1522 
L 1381 1569 
Q 847 1681 609 1914 
Q 372 2147 372 2553 
Q 372 3047 722 3315 
Q 1072 3584 1716 3584 
Q 2034 3584 2315 3537 
Q 2597 3491 2834 3397 
z
" transform="scale(0.015625)"/>
      <path id="DejaVuSans-74" d="M 1172 4494 
L 1172 3500 
L 2356 3500 
L 2356 3053 
L 1172 3053 
L 1172 1153 
Q 1172 725 1289 603 
Q 1406 481 1766 481 
L 2356 481 
L 2356 0 
L 1766 0 
Q 1100 0 847 248 
Q 594 497 594 1153 
L 594 3053 
L 172 3053 
L 172 3500 
L 594 3500 
L 594 4494 
L 1172 4494 
z
" transform="scale(0.015625)"/>
      <path id="DejaVuSans-49" d="M 628 4666 
L 1259 4666 
L 1259 0 
L 628 0 
L 628 4666 
z
" transform="scale(0.015625)"/>
      <path id="DejaVuSans-4e" d="M 628 4666 
L 1478 4666 
L 3547 763 
L 3547 4666 
L 4159 4666 
L 4159 0 
L 3309 0 
L 1241 3903 
L 1241 0 
L 628 0 
L 628 4666 
z
" transform="scale(0.015625)"/>
      <path id="DejaVuSans-45" d="M 628 4666 
L 3578 4666 
L 3578 4134 
L 1259 4134 
L 1259 2753 
L 3481 2753 
L 3481 2222 
L 1259 2222 
L 1259 531 
L 3634 531 
L 3634 0 
L 628 0 
L 628 4666 
z
" transform="scale(0.015625)"/>
      <path id="DejaVuSans-64" d="M 2906 2969 
L 2906 4863 
L 3481 4863 
L 3481 0 
L 2906 0 
L 2906 525 
Q 2725 213 2448 61 
Q 2172 -91 1784 -91 
Q 1150 -91 751 415 
Q 353 922 353 1747 
Q 353 2572 751 3078 
Q 1150 3584 1784 3584 
Q 2172 3584 2448 3432 
Q 2725 3281 2906 2969 
z
M 947 1747 
Q 947 1113 1208 752 
Q 1469 391 1925 391 
Q 2381 391 2643 752 
Q 2906 1113 2906 1747 
Q 2906 2381 2643 2742 
Q 2381 3103 1925 3103 
Q 1469 3103 1208 2742 
Q 947 2381 947 1747 
z
" transform="scale(0.015625)"/>
      <path id="DejaVuSans-71" d="M 947 1747 
Q 947 1113 1208 752 
Q 1469 391 1925 391 
Q 2381 391 2643 752 
Q 2906 1113 2906 1747 
Q 2906 2381 2643 2742 
Q 2381 3103 1925 3103 
Q 1469 3103 1208 2742 
Q 947 2381 947 1747 
z
M 2906 525 
Q 2725 213 2448 61 
Q 2172 -91 1784 -91 
Q 1150 -91 751 415 
Q 353 922 353 1747 
Q 353 2572 751 3078 
Q 1150 3584 1784 3584 
Q 2172 3584 2448 3432 
Q 2725 3281 2906 2969 
L 2906 3500 
L 3481 3500 
L 3481 -1331 
L 2906 -1331 
L 2906 525 
z
" transform="scale(0.015625)"/>
      <path id="DejaVuSans-e1" d="M 2194 1759 
Q 1497 1759 1228 1600 
Q 959 1441 959 1056 
Q 959 750 1161 570 
Q 1363 391 1709 391 
Q 2188 391 2477 730 
Q 2766 1069 2766 1631 
L 2766 1759 
L 2194 1759 
z
M 3341 1997 
L 3341 0 
L 2766 0 
L 2766 531 
Q 2569 213 2275 61 
Q 1981 -91 1556 -91 
Q 1019 -91 701 211 
Q 384 513 384 1019 
Q 384 1609 779 1909 
Q 1175 2209 1959 2209 
L 2766 2209 
L 2766 2266 
Q 2766 2663 2505 2880 
Q 2244 3097 1772 3097 
Q 1472 3097 1187 3025 
Q 903 2953 641 2809 
L 641 3341 
Q 956 3463 1253 3523 
Q 1550 3584 1831 3584 
Q 2591 3584 2966 3190 
Q 3341 2797 3341 1997 
z
M 2290 5119 
L 2912 5119 
L 1894 3944 
L 1415 3944 
L 2290 5119 
z
" transform="scale(0.015625)"/>
      <path id="DejaVuSans-62" d="M 3116 1747 
Q 3116 2381 2855 2742 
Q 2594 3103 2138 3103 
Q 1681 3103 1420 2742 
Q 1159 2381 1159 1747 
Q 1159 1113 1420 752 
Q 1681 391 2138 391 
Q 2594 391 2855 752 
Q 3116 1113 3116 1747 
z
M 1159 2969 
Q 1341 3281 1617 3432 
Q 1894 3584 2278 3584 
Q 2916 3584 3314 3078 
Q 3713 2572 3713 1747 
Q 3713 922 3314 415 
Q 2916 -91 2278 -91 
Q 1894 -91 1617 61 
Q 1341 213 1159 525 
L 1159 0 
L 581 0 
L 581 4863 
L 1159 4863 
L 1159 2969 
z
" transform="scale(0.015625)"/>
      <path id="DejaVuSans-2e" d="M 684 794 
L 1344 794 
L 1344 0 
L 684 0 
L 684 794 
z
" transform="scale(0.015625)"/>
     </defs>
     <use xlink:href="#DejaVuSans-4c"/>
     <use xlink:href="#DejaVuSans-61" transform="translate(55.712891 0)"/>
     <use xlink:href="#DejaVuSans-20" transform="translate(116.992188 0)"/>
     <use xlink:href="#DejaVuSans-70" transform="translate(148.779297 0)"/>
     <use xlink:href="#DejaVuSans-72" transform="translate(212.255859 0)"/>
     <use xlink:href="#DejaVuSans-6f" transform="translate(251.119141 0)"/>
     <use xlink:href="#DejaVuSans-79" transform="translate(312.300781 0)"/>
     <use xlink:href="#DejaVuSans-65" transform="translate(371.480469 0)"/>
     <use xlink:href="#DejaVuSans-63" transform="translate(433.003906 0)"/>
     <use xlink:href="#DejaVuSans-63" transform="translate(487.984375 0)"/>
     <use xlink:href="#DejaVuSans-69" transform="translate(542.964844 0)"/>
     <use xlink:href="#DejaVuSans-f3" transform="translate(570.748047 0)"/>
     <use xlink:href="#DejaVuSans-6e" transform="translate(631.929688 0)"/>
     <use xlink:href="#DejaVuSans-20" transform="translate(695.308594 0)"/>
     <use xlink:href="#DejaVuSans-73" transform="translate(727.095703 0)"/>
     <use xlink:href="#DejaVuSans-65" transform="translate(779.195312 0)"/>
     <use xlink:href="#DejaVuSans-63" transform="translate(840.71875 0)"/>
     <use xlink:href="#DejaVuSans-74" transform="translate(895.699219 0)"/>
     <use xlink:href="#DejaVuSans-6f" transform="translate(934.908203 0)"/>
     <use xlink:href="#DejaVuSans-72" transform="translate(996.089844 0)"/>
     <use xlink:href="#DejaVuSans-69" transform="translate(1037.203125 0)"/>
     <use xlink:href="#DejaVuSans-61" transform="translate(1064.986328 0)"/>
     <use xlink:href="#DejaVuSans-6c" transform="translate(1126.265625 0)"/>
     <use xlink:href="#DejaVuSans-20" transform="translate(1154.048828 0)"/>
     <use xlink:href="#DejaVuSans-49" transform="translate(1185.835938 0)"/>
     <use xlink:href="#DejaVuSans-4e" transform="translate(1215.328125 0)"/>
     <use xlink:href="#DejaVuSans-45" transform="translate(1290.132812 0)"/>
     <use xlink:href="#DejaVuSans-20" transform="translate(1353.316406 0)"/>
     <use xlink:href="#DejaVuSans-73" transform="translate(1385.103516 0)"/>
     <use xlink:href="#DejaVuSans-6f" transform="translate(1437.203125 0)"/>
     <use xlink:href="#DejaVuSans-6c" transform="translate(1498.384766 0)"/>
     <use xlink:href="#DejaVuSans-6f" transform="translate(1526.167969 0)"/>
     <use xlink:href="#DejaVuSans-20" transform="translate(1587.349609 0)"/>
     <use xlink:href="#DejaVuSans-61" transform="translate(1619.136719 0)"/>
     <use xlink:href="#DejaVuSans-70" transform="translate(1680.416016 0)"/>
     <use xlink:href="#DejaVuSans-61" transform="translate(1743.892578 0)"/>
     <use xlink:href="#DejaVuSans-72" transform="translate(1805.171875 0)"/>
     <use xlink:href="#DejaVuSans-65" transform="translate(1844.035156 0)"/>
     <use xlink:href="#DejaVuSans-63" transform="translate(1905.558594 0)"/>
     <use xlink:href="#DejaVuSans-65" transform="translate(1960.539062 0)"/>
     <use xlink:href="#DejaVuSans-20" transform="translate(2022.0625 0)"/>
     <use xlink:href="#DejaVuSans-63" transform="translate(2053.849609 0)"/>
     <use xlink:href="#DejaVuSans-75" transform="translate(2108.830078 0)"/>
     <use xlink:href="#DejaVuSans-61" transform="translate(2172.208984 0)"/>
     <use xlink:href="#DejaVuSans-6e" transform="translate(2233.488281 0)"/>
     <use xlink:href="#DejaVuSans-64" transform="translate(2296.867188 0)"/>
     <use xlink:href="#DejaVuSans-6f" transform="translate(2360.34375 0)"/>
     <use xlink:href="#DejaVuSans-20" transform="translate(2421.525391 0)"/>
     <use xlink:href="#DejaVuSans-6c" transform="translate(2453.3125 0)"/>
     <use xlink:href="#DejaVuSans-6f" transform="translate(2481.095703 0)"/>
     <use xlink:href="#DejaVuSans-73" transform="translate(2542.277344 0)"/>
     <use xlink:href="#DejaVuSans-20" transform="translate(2594.376953 0)"/>
     <use xlink:href="#DejaVuSans-69" transform="translate(2626.164062 0)"/>
     <use xlink:href="#DejaVuSans-6e" transform="translate(2653.947266 0)"/>
     <use xlink:href="#DejaVuSans-64" transform="translate(2717.326172 0)"/>
     <use xlink:href="#DejaVuSans-69" transform="translate(2780.802734 0)"/>
     <use xlink:href="#DejaVuSans-63" transform="translate(2808.585938 0)"/>
     <use xlink:href="#DejaVuSans-61" transform="translate(2863.566406 0)"/>
     <use xlink:href="#DejaVuSans-64" transform="translate(2924.845703 0)"/>
     <use xlink:href="#DejaVuSans-6f" transform="translate(2988.322266 0)"/>
     <use xlink:href="#DejaVuSans-72" transform="translate(3049.503906 0)"/>
     <use xlink:href="#DejaVuSans-65" transform="translate(3088.367188 0)"/>
     <use xlink:href="#DejaVuSans-73" transform="translate(3149.890625 0)"/>
     <use xlink:href="#DejaVuSans-20" transform="translate(3201.990234 0)"/>
     <use xlink:href="#DejaVuSans-72" transform="translate(3233.777344 0)"/>
     <use xlink:href="#DejaVuSans-65" transform="translate(3272.640625 0)"/>
     <use xlink:href="#DejaVuSans-71" transform="translate(3334.164062 0)"/>
     <use xlink:href="#DejaVuSans-75" transform="translate(3397.640625 0)"/>
     <use xlink:href="#DejaVuSans-65" transform="translate(3461.019531 0)"/>
     <use xlink:href="#DejaVuSans-72" transform="translate(3522.542969 0)"/>
     <use xlink:href="#DejaVuSans-69" transform="translate(3563.65625 0)"/>
     <use xlink:href="#DejaVuSans-64" transform="translate(3591.439453 0)"/>
     <use xlink:href="#DejaVuSans-6f" transform="translate(3654.916016 0)"/>
     <use xlink:href="#DejaVuSans-73" transform="translate(3716.097656 0)"/>
     <use xlink:href="#DejaVuSans-20" transform="translate(3768.197266 0)"/>
     <use xlink:href="#DejaVuSans-65" transform="translate(3799.984375 0)"/>
     <use xlink:href="#DejaVuSans-73" transform="translate(3861.507812 0)"/>
     <use xlink:href="#DejaVuSans-74" transform="translate(3913.607422 0)"/>
     <use xlink:href="#DejaVuSans-e1" transform="translate(3952.816406 0)"/>
     <use xlink:href="#DejaVuSans-6e" transform="translate(4014.095703 0)"/>
     <use xlink:href="#DejaVuSans-20" transform="translate(4077.474609 0)"/>
     <use xlink:href="#DejaVuSans-64" transform="translate(4109.261719 0)"/>
     <use xlink:href="#DejaVuSans-69" transform="translate(4172.738281 0)"/>
     <use xlink:href="#DejaVuSans-73" transform="translate(4200.521484 0)"/>
     <use xlink:href="#DejaVuSans-70" transform="translate(4252.621094 0)"/>
     <use xlink:href="#DejaVuSans-6f" transform="translate(4316.097656 0)"/>
     <use xlink:href="#DejaVuSans-6e" transform="translate(4377.279297 0)"/>
     <use xlink:href="#DejaVuSans-69" transform="translate(4440.658203 0)"/>
     <use xlink:href="#DejaVuSans-62" transform="translate(4468.441406 0)"/>
     <use xlink:href="#DejaVuSans-6c" transform="translate(4531.917969 0)"/>
     <use xlink:href="#DejaVuSans-65" transform="translate(4559.701172 0)"/>
     <use xlink:href="#DejaVuSans-73" transform="translate(4621.224609 0)"/>
     <use xlink:href="#DejaVuSans-2e" transform="translate(4673.324219 0)"/>
    </g>
   </g>
   <g id="text_20">
    <!-- IMACEC total: efectivo, ajuste y nowcast vigente -->
    <g style="fill: #1f2b36" transform="translate(60.9536 20.117344) scale(0.17 -0.17)">
     <defs>
      <path id="DejaVuSans-Bold-49" d="M 588 4666 
L 1791 4666 
L 1791 0 
L 588 0 
L 588 4666 
z
" transform="scale(0.015625)"/>
      <path id="DejaVuSans-Bold-4d" d="M 588 4666 
L 2119 4666 
L 3181 2169 
L 4250 4666 
L 5778 4666 
L 5778 0 
L 4641 0 
L 4641 3413 
L 3566 897 
L 2803 897 
L 1728 3413 
L 1728 0 
L 588 0 
L 588 4666 
z
" transform="scale(0.015625)"/>
      <path id="DejaVuSans-Bold-41" d="M 3419 850 
L 1538 850 
L 1241 0 
L 31 0 
L 1759 4666 
L 3194 4666 
L 4922 0 
L 3713 0 
L 3419 850 
z
M 1838 1716 
L 3116 1716 
L 2478 3572 
L 1838 1716 
z
" transform="scale(0.015625)"/>
      <path id="DejaVuSans-Bold-43" d="M 4288 256 
Q 3956 84 3597 -3 
Q 3238 -91 2847 -91 
Q 1681 -91 1000 561 
Q 319 1213 319 2328 
Q 319 3447 1000 4098 
Q 1681 4750 2847 4750 
Q 3238 4750 3597 4662 
Q 3956 4575 4288 4403 
L 4288 3438 
Q 3953 3666 3628 3772 
Q 3303 3878 2944 3878 
Q 2300 3878 1931 3465 
Q 1563 3053 1563 2328 
Q 1563 1606 1931 1193 
Q 2300 781 2944 781 
Q 3303 781 3628 887 
Q 3953 994 4288 1222 
L 4288 256 
z
" transform="scale(0.015625)"/>
      <path id="DejaVuSans-Bold-45" d="M 588 4666 
L 3834 4666 
L 3834 3756 
L 1791 3756 
L 1791 2888 
L 3713 2888 
L 3713 1978 
L 1791 1978 
L 1791 909 
L 3903 909 
L 3903 0 
L 588 0 
L 588 4666 
z
" transform="scale(0.015625)"/>
      <path id="DejaVuSans-Bold-20" transform="scale(0.015625)"/>
      <path id="DejaVuSans-Bold-74" d="M 1759 4494 
L 1759 3500 
L 2913 3500 
L 2913 2700 
L 1759 2700 
L 1759 1216 
Q 1759 972 1856 886 
Q 1953 800 2241 800 
L 2816 800 
L 2816 0 
L 1856 0 
Q 1194 0 917 276 
Q 641 553 641 1216 
L 641 2700 
L 84 2700 
L 84 3500 
L 641 3500 
L 641 4494 
L 1759 4494 
z
" transform="scale(0.015625)"/>
      <path id="DejaVuSans-Bold-6f" d="M 2203 2784 
Q 1831 2784 1636 2517 
Q 1441 2250 1441 1747 
Q 1441 1244 1636 976 
Q 1831 709 2203 709 
Q 2569 709 2762 976 
Q 2956 1244 2956 1747 
Q 2956 2250 2762 2517 
Q 2569 2784 2203 2784 
z
M 2203 3584 
Q 3106 3584 3614 3096 
Q 4122 2609 4122 1747 
Q 4122 884 3614 396 
Q 3106 -91 2203 -91 
Q 1297 -91 786 396 
Q 275 884 275 1747 
Q 275 2609 786 3096 
Q 1297 3584 2203 3584 
z
" transform="scale(0.015625)"/>
      <path id="DejaVuSans-Bold-61" d="M 2106 1575 
Q 1756 1575 1579 1456 
Q 1403 1338 1403 1106 
Q 1403 894 1545 773 
Q 1688 653 1941 653 
Q 2256 653 2472 879 
Q 2688 1106 2688 1447 
L 2688 1575 
L 2106 1575 
z
M 3816 1997 
L 3816 0 
L 2688 0 
L 2688 519 
Q 2463 200 2181 54 
Q 1900 -91 1497 -91 
Q 953 -91 614 226 
Q 275 544 275 1050 
Q 275 1666 698 1953 
Q 1122 2241 2028 2241 
L 2688 2241 
L 2688 2328 
Q 2688 2594 2478 2717 
Q 2269 2841 1825 2841 
Q 1466 2841 1156 2769 
Q 847 2697 581 2553 
L 581 3406 
Q 941 3494 1303 3539 
Q 1666 3584 2028 3584 
Q 2975 3584 3395 3211 
Q 3816 2838 3816 1997 
z
" transform="scale(0.015625)"/>
      <path id="DejaVuSans-Bold-6c" d="M 538 4863 
L 1656 4863 
L 1656 0 
L 538 0 
L 538 4863 
z
" transform="scale(0.015625)"/>
      <path id="DejaVuSans-Bold-3a" d="M 716 3500 
L 1844 3500 
L 1844 2291 
L 716 2291 
L 716 3500 
z
M 716 1209 
L 1844 1209 
L 1844 0 
L 716 0 
L 716 1209 
z
" transform="scale(0.015625)"/>
      <path id="DejaVuSans-Bold-65" d="M 4031 1759 
L 4031 1441 
L 1416 1441 
Q 1456 1047 1700 850 
Q 1944 653 2381 653 
Q 2734 653 3104 758 
Q 3475 863 3866 1075 
L 3866 213 
Q 3469 63 3072 -14 
Q 2675 -91 2278 -91 
Q 1328 -91 801 392 
Q 275 875 275 1747 
Q 275 2603 792 3093 
Q 1309 3584 2216 3584 
Q 3041 3584 3536 3087 
Q 4031 2591 4031 1759 
z
M 2881 2131 
Q 2881 2450 2695 2645 
Q 2509 2841 2209 2841 
Q 1884 2841 1681 2658 
Q 1478 2475 1428 2131 
L 2881 2131 
z
" transform="scale(0.015625)"/>
      <path id="DejaVuSans-Bold-66" d="M 2841 4863 
L 2841 4128 
L 2222 4128 
Q 1984 4128 1890 4042 
Q 1797 3956 1797 3744 
L 1797 3500 
L 2753 3500 
L 2753 2700 
L 1797 2700 
L 1797 0 
L 678 0 
L 678 2700 
L 122 2700 
L 122 3500 
L 678 3500 
L 678 3744 
Q 678 4316 997 4589 
Q 1316 4863 1984 4863 
L 2841 4863 
z
" transform="scale(0.015625)"/>
      <path id="DejaVuSans-Bold-63" d="M 3366 3391 
L 3366 2478 
Q 3138 2634 2908 2709 
Q 2678 2784 2431 2784 
Q 1963 2784 1702 2511 
Q 1441 2238 1441 1747 
Q 1441 1256 1702 982 
Q 1963 709 2431 709 
Q 2694 709 2930 787 
Q 3166 866 3366 1019 
L 3366 103 
Q 3103 6 2833 -42 
Q 2563 -91 2291 -91 
Q 1344 -91 809 395 
Q 275 881 275 1747 
Q 275 2613 809 3098 
Q 1344 3584 2291 3584 
Q 2566 3584 2833 3536 
Q 3100 3488 3366 3391 
z
" transform="scale(0.015625)"/>
      <path id="DejaVuSans-Bold-69" d="M 538 3500 
L 1656 3500 
L 1656 0 
L 538 0 
L 538 3500 
z
M 538 4863 
L 1656 4863 
L 1656 3950 
L 538 3950 
L 538 4863 
z
" transform="scale(0.015625)"/>
      <path id="DejaVuSans-Bold-76" d="M 97 3500 
L 1216 3500 
L 2088 1081 
L 2956 3500 
L 4078 3500 
L 2700 0 
L 1472 0 
L 97 3500 
z
" transform="scale(0.015625)"/>
      <path id="DejaVuSans-Bold-2c" d="M 653 1209 
L 1778 1209 
L 1778 256 
L 1006 -909 
L 341 -909 
L 653 256 
L 653 1209 
z
" transform="scale(0.015625)"/>
      <path id="DejaVuSans-Bold-6a" d="M 538 3500 
L 1656 3500 
L 1656 63 
Q 1656 -641 1318 -1011 
Q 981 -1381 341 -1381 
L -213 -1381 
L -213 -647 
L -19 -647 
Q 300 -647 419 -503 
Q 538 -359 538 63 
L 538 3500 
z
M 538 4863 
L 1656 4863 
L 1656 3950 
L 538 3950 
L 538 4863 
z
" transform="scale(0.015625)"/>
      <path id="DejaVuSans-Bold-75" d="M 500 1363 
L 500 3500 
L 1625 3500 
L 1625 3150 
Q 1625 2866 1622 2436 
Q 1619 2006 1619 1863 
Q 1619 1441 1641 1255 
Q 1663 1069 1716 984 
Q 1784 875 1895 815 
Q 2006 756 2150 756 
Q 2500 756 2700 1025 
Q 2900 1294 2900 1772 
L 2900 3500 
L 4019 3500 
L 4019 0 
L 2900 0 
L 2900 506 
Q 2647 200 2364 54 
Q 2081 -91 1741 -91 
Q 1134 -91 817 281 
Q 500 653 500 1363 
z
" transform="scale(0.015625)"/>
      <path id="DejaVuSans-Bold-73" d="M 3272 3391 
L 3272 2541 
Q 2913 2691 2578 2766 
Q 2244 2841 1947 2841 
Q 1628 2841 1473 2761 
Q 1319 2681 1319 2516 
Q 1319 2381 1436 2309 
Q 1553 2238 1856 2203 
L 2053 2175 
Q 2913 2066 3209 1816 
Q 3506 1566 3506 1031 
Q 3506 472 3093 190 
Q 2681 -91 1863 -91 
Q 1516 -91 1145 -36 
Q 775 19 384 128 
L 384 978 
Q 719 816 1070 734 
Q 1422 653 1784 653 
Q 2113 653 2278 743 
Q 2444 834 2444 1013 
Q 2444 1163 2330 1236 
Q 2216 1309 1875 1350 
L 1678 1375 
Q 931 1469 631 1722 
Q 331 1975 331 2491 
Q 331 3047 712 3315 
Q 1094 3584 1881 3584 
Q 2191 3584 2531 3537 
Q 2872 3491 3272 3391 
z
" transform="scale(0.015625)"/>
      <path id="DejaVuSans-Bold-79" d="M 78 3500 
L 1197 3500 
L 2138 1125 
L 2938 3500 
L 4056 3500 
L 2584 -331 
Q 2363 -916 2067 -1148 
Q 1772 -1381 1288 -1381 
L 641 -1381 
L 641 -647 
L 991 -647 
Q 1275 -647 1404 -556 
Q 1534 -466 1606 -231 
L 1638 -134 
L 78 3500 
z
" transform="scale(0.015625)"/>
      <path id="DejaVuSans-Bold-6e" d="M 4056 2131 
L 4056 0 
L 2931 0 
L 2931 347 
L 2931 1631 
Q 2931 2084 2911 2256 
Q 2891 2428 2841 2509 
Q 2775 2619 2662 2680 
Q 2550 2741 2406 2741 
Q 2056 2741 1856 2470 
Q 1656 2200 1656 1722 
L 1656 0 
L 538 0 
L 538 3500 
L 1656 3500 
L 1656 2988 
Q 1909 3294 2193 3439 
Q 2478 3584 2822 3584 
Q 3428 3584 3742 3212 
Q 4056 2841 4056 2131 
z
" transform="scale(0.015625)"/>
      <path id="DejaVuSans-Bold-77" d="M 225 3500 
L 1313 3500 
L 1900 1088 
L 2491 3500 
L 3425 3500 
L 4013 1113 
L 4603 3500 
L 5691 3500 
L 4769 0 
L 3547 0 
L 2956 2406 
L 2369 0 
L 1147 0 
L 225 3500 
z
" transform="scale(0.015625)"/>
      <path id="DejaVuSans-Bold-67" d="M 2919 594 
Q 2688 288 2409 144 
Q 2131 0 1766 0 
Q 1125 0 706 504 
Q 288 1009 288 1791 
Q 288 2575 706 3076 
Q 1125 3578 1766 3578 
Q 2131 3578 2409 3434 
Q 2688 3291 2919 2981 
L 2919 3500 
L 4044 3500 
L 4044 353 
Q 4044 -491 3511 -936 
Q 2978 -1381 1966 -1381 
Q 1638 -1381 1331 -1331 
Q 1025 -1281 716 -1178 
L 716 -306 
Q 1009 -475 1290 -558 
Q 1572 -641 1856 -641 
Q 2406 -641 2662 -400 
Q 2919 -159 2919 353 
L 2919 594 
z
M 2181 2772 
Q 1834 2772 1640 2515 
Q 1447 2259 1447 1791 
Q 1447 1309 1634 1061 
Q 1822 813 2181 813 
Q 2531 813 2725 1069 
Q 2919 1325 2919 1791 
Q 2919 2259 2725 2515 
Q 2531 2772 2181 2772 
z
" transform="scale(0.015625)"/>
     </defs>
     <use xlink:href="#DejaVuSans-Bold-49"/>
     <use xlink:href="#DejaVuSans-Bold-4d" transform="translate(37.207031 0)"/>
     <use xlink:href="#DejaVuSans-Bold-41" transform="translate(136.71875 0)"/>
     <use xlink:href="#DejaVuSans-Bold-43" transform="translate(214.111328 0)"/>
     <use xlink:href="#DejaVuSans-Bold-45" transform="translate(287.5 0)"/>
     <use xlink:href="#DejaVuSans-Bold-43" transform="translate(355.810547 0)"/>
     <use xlink:href="#DejaVuSans-Bold-20" transform="translate(429.199219 0)"/>
     <use xlink:href="#DejaVuSans-Bold-74" transform="translate(464.013672 0)"/>
     <use xlink:href="#DejaVuSans-Bold-6f" transform="translate(511.816406 0)"/>
     <use xlink:href="#DejaVuSans-Bold-74" transform="translate(580.517578 0)"/>
     <use xlink:href="#DejaVuSans-Bold-61" transform="translate(628.320312 0)"/>
     <use xlink:href="#DejaVuSans-Bold-6c" transform="translate(695.800781 0)"/>
     <use xlink:href="#DejaVuSans-Bold-3a" transform="translate(730.078125 0)"/>
     <use xlink:href="#DejaVuSans-Bold-20" transform="translate(770.068359 0)"/>
     <use xlink:href="#DejaVuSans-Bold-65" transform="translate(804.882812 0)"/>
     <use xlink:href="#DejaVuSans-Bold-66" transform="translate(872.705078 0)"/>
     <use xlink:href="#DejaVuSans-Bold-65" transform="translate(916.210938 0)"/>
     <use xlink:href="#DejaVuSans-Bold-63" transform="translate(984.033203 0)"/>
     <use xlink:href="#DejaVuSans-Bold-74" transform="translate(1043.310547 0)"/>
     <use xlink:href="#DejaVuSans-Bold-69" transform="translate(1091.113281 0)"/>
     <use xlink:href="#DejaVuSans-Bold-76" transform="translate(1125.390625 0)"/>
     <use xlink:href="#DejaVuSans-Bold-6f" transform="translate(1190.576172 0)"/>
     <use xlink:href="#DejaVuSans-Bold-2c" transform="translate(1259.277344 0)"/>
     <use xlink:href="#DejaVuSans-Bold-20" transform="translate(1297.265625 0)"/>
     <use xlink:href="#DejaVuSans-Bold-61" transform="translate(1332.080078 0)"/>
     <use xlink:href="#DejaVuSans-Bold-6a" transform="translate(1399.560547 0)"/>
     <use xlink:href="#DejaVuSans-Bold-75" transform="translate(1433.837891 0)"/>
     <use xlink:href="#DejaVuSans-Bold-73" transform="translate(1505.029297 0)"/>
     <use xlink:href="#DejaVuSans-Bold-74" transform="translate(1564.550781 0)"/>
     <use xlink:href="#DejaVuSans-Bold-65" transform="translate(1612.353516 0)"/>
     <use xlink:href="#DejaVuSans-Bold-20" transform="translate(1680.175781 0)"/>
     <use xlink:href="#DejaVuSans-Bold-79" transform="translate(1714.990234 0)"/>
     <use xlink:href="#DejaVuSans-Bold-20" transform="translate(1780.175781 0)"/>
     <use xlink:href="#DejaVuSans-Bold-6e" transform="translate(1814.990234 0)"/>
     <use xlink:href="#DejaVuSans-Bold-6f" transform="translate(1886.181641 0)"/>
     <use xlink:href="#DejaVuSans-Bold-77" transform="translate(1954.882812 0)"/>
     <use xlink:href="#DejaVuSans-Bold-63" transform="translate(2047.265625 0)"/>
     <use xlink:href="#DejaVuSans-Bold-61" transform="translate(2106.542969 0)"/>
     <use xlink:href="#DejaVuSans-Bold-73" transform="translate(2174.023438 0)"/>
     <use xlink:href="#DejaVuSans-Bold-74" transform="translate(2233.544922 0)"/>
     <use xlink:href="#DejaVuSans-Bold-20" transform="translate(2281.347656 0)"/>
     <use xlink:href="#DejaVuSans-Bold-76" transform="translate(2316.162109 0)"/>
     <use xlink:href="#DejaVuSans-Bold-69" transform="translate(2381.347656 0)"/>
     <use xlink:href="#DejaVuSans-Bold-67" transform="translate(2415.625 0)"/>
     <use xlink:href="#DejaVuSans-Bold-65" transform="translate(2487.207031 0)"/>
     <use xlink:href="#DejaVuSans-Bold-6e" transform="translate(2555.029297 0)"/>
     <use xlink:href="#DejaVuSans-Bold-74" transform="translate(2626.220703 0)"/>
     <use xlink:href="#DejaVuSans-Bold-65" transform="translate(2674.023438 0)"/>
    </g>
   </g>
   <g id="legend_1">
    <g id="line2d_29">
     <path d="M 261.521322 368.27029 
L 270.721322 368.27029 
L 279.921322 368.27029 
" style="fill: none; stroke: #193044; stroke-width: 2.25; stroke-linecap: square"/>
    </g>
    <g id="text_21">
     <!-- Efectivo -->
     <g transform="translate(287.281322 371.49029) scale(0.092 -0.092)">
      <defs>
       <path id="DejaVuSans-66" d="M 2375 4863 
L 2375 4384 
L 1825 4384 
Q 1516 4384 1395 4259 
Q 1275 4134 1275 3809 
L 1275 3500 
L 2222 3500 
L 2222 3053 
L 1275 3053 
L 1275 0 
L 697 0 
L 697 3053 
L 147 3053 
L 147 3500 
L 697 3500 
L 697 3744 
Q 697 4328 969 4595 
Q 1241 4863 1831 4863 
L 2375 4863 
z
" transform="scale(0.015625)"/>
       <path id="DejaVuSans-76" d="M 191 3500 
L 800 3500 
L 1894 563 
L 2988 3500 
L 3597 3500 
L 2284 0 
L 1503 0 
L 191 3500 
z
" transform="scale(0.015625)"/>
      </defs>
      <use xlink:href="#DejaVuSans-45"/>
      <use xlink:href="#DejaVuSans-66" transform="translate(63.183594 0)"/>
      <use xlink:href="#DejaVuSans-65" transform="translate(98.388672 0)"/>
      <use xlink:href="#DejaVuSans-63" transform="translate(159.912109 0)"/>
      <use xlink:href="#DejaVuSans-74" transform="translate(214.892578 0)"/>
      <use xlink:href="#DejaVuSans-69" transform="translate(254.101562 0)"/>
      <use xlink:href="#DejaVuSans-76" transform="translate(281.884766 0)"/>
      <use xlink:href="#DejaVuSans-6f" transform="translate(341.064453 0)"/>
     </g>
    </g>
    <g id="line2d_30">
     <path d="M 261.521322 382.142165 
L 270.721322 382.142165 
L 279.921322 382.142165 
" style="fill: none; stroke-dasharray: 5.735,2.48; stroke-dashoffset: 0; stroke: #b4573d; stroke-width: 1.55"/>
    </g>
    <g id="text_22">
     <!-- Ajuste: estadísticas experimentales -->
     <g transform="translate(287.281322 385.362165) scale(0.092 -0.092)">
      <defs>
       <path id="DejaVuSans-41" d="M 2188 4044 
L 1331 1722 
L 3047 1722 
L 2188 4044 
z
M 1831 4666 
L 2547 4666 
L 4325 0 
L 3669 0 
L 3244 1197 
L 1141 1197 
L 716 0 
L 50 0 
L 1831 4666 
z
" transform="scale(0.015625)"/>
       <path id="DejaVuSans-6a" d="M 603 3500 
L 1178 3500 
L 1178 -63 
Q 1178 -731 923 -1031 
Q 669 -1331 103 -1331 
L -116 -1331 
L -116 -844 
L 38 -844 
Q 366 -844 484 -692 
Q 603 -541 603 -63 
L 603 3500 
z
M 603 4863 
L 1178 4863 
L 1178 4134 
L 603 4134 
L 603 4863 
z
" transform="scale(0.015625)"/>
       <path id="DejaVuSans-3a" d="M 750 794 
L 1409 794 
L 1409 0 
L 750 0 
L 750 794 
z
M 750 3309 
L 1409 3309 
L 1409 2516 
L 750 2516 
L 750 3309 
z
" transform="scale(0.015625)"/>
       <path id="DejaVuSans-ed" d="M 1322 5119 
L 1944 5119 
L 926 3944 
L 447 3944 
L 1322 5119 
z
M 603 3500 
L 1178 3500 
L 1178 0 
L 603 0 
L 603 3500 
z
M 891 3584 
L 891 3584 
z
" transform="scale(0.015625)"/>
       <path id="DejaVuSans-78" d="M 3513 3500 
L 2247 1797 
L 3578 0 
L 2900 0 
L 1881 1375 
L 863 0 
L 184 0 
L 1544 1831 
L 300 3500 
L 978 3500 
L 1906 2253 
L 2834 3500 
L 3513 3500 
z
" transform="scale(0.015625)"/>
       <path id="DejaVuSans-6d" d="M 3328 2828 
Q 3544 3216 3844 3400 
Q 4144 3584 4550 3584 
Q 5097 3584 5394 3201 
Q 5691 2819 5691 2113 
L 5691 0 
L 5113 0 
L 5113 2094 
Q 5113 2597 4934 2840 
Q 4756 3084 4391 3084 
Q 3944 3084 3684 2787 
Q 3425 2491 3425 1978 
L 3425 0 
L 2847 0 
L 2847 2094 
Q 2847 2600 2669 2842 
Q 2491 3084 2119 3084 
Q 1678 3084 1418 2786 
Q 1159 2488 1159 1978 
L 1159 0 
L 581 0 
L 581 3500 
L 1159 3500 
L 1159 2956 
Q 1356 3278 1631 3431 
Q 1906 3584 2284 3584 
Q 2666 3584 2933 3390 
Q 3200 3197 3328 2828 
z
" transform="scale(0.015625)"/>
      </defs>
      <use xlink:href="#DejaVuSans-41"/>
      <use xlink:href="#DejaVuSans-6a" transform="translate(68.408203 0)"/>
      <use xlink:href="#DejaVuSans-75" transform="translate(96.191406 0)"/>
      <use xlink:href="#DejaVuSans-73" transform="translate(159.570312 0)"/>
      <use xlink:href="#DejaVuSans-74" transform="translate(211.669922 0)"/>
      <use xlink:href="#DejaVuSans-65" transform="translate(250.878906 0)"/>
      <use xlink:href="#DejaVuSans-3a" transform="translate(312.402344 0)"/>
      <use xlink:href="#DejaVuSans-20" transform="translate(346.09375 0)"/>
      <use xlink:href="#DejaVuSans-65" transform="translate(377.880859 0)"/>
      <use xlink:href="#DejaVuSans-73" transform="translate(439.404297 0)"/>
      <use xlink:href="#DejaVuSans-74" transform="translate(491.503906 0)"/>
      <use xlink:href="#DejaVuSans-61" transform="translate(530.712891 0)"/>
      <use xlink:href="#DejaVuSans-64" transform="translate(591.992188 0)"/>
      <use xlink:href="#DejaVuSans-ed" transform="translate(655.46875 0)"/>
      <use xlink:href="#DejaVuSans-73" transform="translate(683.251953 0)"/>
      <use xlink:href="#DejaVuSans-74" transform="translate(735.351562 0)"/>
      <use xlink:href="#DejaVuSans-69" transform="translate(774.560547 0)"/>
      <use xlink:href="#DejaVuSans-63" transform="translate(802.34375 0)"/>
      <use xlink:href="#DejaVuSans-61" transform="translate(857.324219 0)"/>
      <use xlink:href="#DejaVuSans-73" transform="translate(918.603516 0)"/>
      <use xlink:href="#DejaVuSans-20" transform="translate(970.703125 0)"/>
      <use xlink:href="#DejaVuSans-65" transform="translate(1002.490234 0)"/>
      <use xlink:href="#DejaVuSans-78" transform="translate(1062.263672 0)"/>
      <use xlink:href="#DejaVuSans-70" transform="translate(1121.443359 0)"/>
      <use xlink:href="#DejaVuSans-65" transform="translate(1184.919922 0)"/>
      <use xlink:href="#DejaVuSans-72" transform="translate(1246.443359 0)"/>
      <use xlink:href="#DejaVuSans-69" transform="translate(1287.556641 0)"/>
      <use xlink:href="#DejaVuSans-6d" transform="translate(1315.339844 0)"/>
      <use xlink:href="#DejaVuSans-65" transform="translate(1412.751953 0)"/>
      <use xlink:href="#DejaVuSans-6e" transform="translate(1474.275391 0)"/>
      <use xlink:href="#DejaVuSans-74" transform="translate(1537.654297 0)"/>
      <use xlink:href="#DejaVuSans-61" transform="translate(1576.863281 0)"/>
      <use xlink:href="#DejaVuSans-6c" transform="translate(1638.142578 0)"/>
      <use xlink:href="#DejaVuSans-65" transform="translate(1665.925781 0)"/>
      <use xlink:href="#DejaVuSans-73" transform="translate(1727.449219 0)"/>
     </g>
    </g>
    <g id="line2d_31">
     <path d="M 469.398197 368.27029 
L 478.598197 368.27029 
L 487.798197 368.27029 
" style="fill: none; stroke-dasharray: 1.55,2.5575; stroke-dashoffset: 0; stroke: #2b7777; stroke-width: 1.55"/>
    </g>
    <g id="text_23">
     <!-- Ajuste: indicadores sectoriales INE -->
     <g transform="translate(495.158197 371.49029) scale(0.092 -0.092)">
      <use xlink:href="#DejaVuSans-41"/>
      <use xlink:href="#DejaVuSans-6a" transform="translate(68.408203 0)"/>
      <use xlink:href="#DejaVuSans-75" transform="translate(96.191406 0)"/>
      <use xlink:href="#DejaVuSans-73" transform="translate(159.570312 0)"/>
      <use xlink:href="#DejaVuSans-74" transform="translate(211.669922 0)"/>
      <use xlink:href="#DejaVuSans-65" transform="translate(250.878906 0)"/>
      <use xlink:href="#DejaVuSans-3a" transform="translate(312.402344 0)"/>
      <use xlink:href="#DejaVuSans-20" transform="translate(346.09375 0)"/>
      <use xlink:href="#DejaVuSans-69" transform="translate(377.880859 0)"/>
      <use xlink:href="#DejaVuSans-6e" transform="translate(405.664062 0)"/>
      <use xlink:href="#DejaVuSans-64" transform="translate(469.042969 0)"/>
      <use xlink:href="#DejaVuSans-69" transform="translate(532.519531 0)"/>
      <use xlink:href="#DejaVuSans-63" transform="translate(560.302734 0)"/>
      <use xlink:href="#DejaVuSans-61" transform="translate(615.283203 0)"/>
      <use xlink:href="#DejaVuSans-64" transform="translate(676.5625 0)"/>
      <use xlink:href="#DejaVuSans-6f" transform="translate(740.039062 0)"/>
      <use xlink:href="#DejaVuSans-72" transform="translate(801.220703 0)"/>
      <use xlink:href="#DejaVuSans-65" transform="translate(840.083984 0)"/>
      <use xlink:href="#DejaVuSans-73" transform="translate(901.607422 0)"/>
      <use xlink:href="#DejaVuSans-20" transform="translate(953.707031 0)"/>
      <use xlink:href="#DejaVuSans-73" transform="translate(985.494141 0)"/>
      <use xlink:href="#DejaVuSans-65" transform="translate(1037.59375 0)"/>
      <use xlink:href="#DejaVuSans-63" transform="translate(1099.117188 0)"/>
      <use xlink:href="#DejaVuSans-74" transform="translate(1154.097656 0)"/>
      <use xlink:href="#DejaVuSans-6f" transform="translate(1193.306641 0)"/>
      <use xlink:href="#DejaVuSans-72" transform="translate(1254.488281 0)"/>
      <use xlink:href="#DejaVuSans-69" transform="translate(1295.601562 0)"/>
      <use xlink:href="#DejaVuSans-61" transform="translate(1323.384766 0)"/>
      <use xlink:href="#DejaVuSans-6c" transform="translate(1384.664062 0)"/>
      <use xlink:href="#DejaVuSans-65" transform="translate(1412.447266 0)"/>
      <use xlink:href="#DejaVuSans-73" transform="translate(1473.970703 0)"/>
      <use xlink:href="#DejaVuSans-20" transform="translate(1526.070312 0)"/>
      <use xlink:href="#DejaVuSans-49" transform="translate(1557.857422 0)"/>
      <use xlink:href="#DejaVuSans-4e" transform="translate(1587.349609 0)"/>
      <use xlink:href="#DejaVuSans-45" transform="translate(1662.154297 0)"/>
     </g>
    </g>
    <g id="PathCollection_1">
     <defs>
      <path id="ma46510d980" d="M 0 4.527693 
C 1.200758 4.527693 2.352498 4.050626 3.201562 3.201562 
C 4.050626 2.352498 4.527693 1.200758 4.527693 0 
C 4.527693 -1.200758 4.050626 -2.352498 3.201562 -3.201562 
C 2.352498 -4.050626 1.200758 -4.527693 0 -4.527693 
C -1.200758 -4.527693 -2.352498 -4.050626 -3.201562 -3.201562 
C -4.050626 -2.352498 -4.527693 -1.200758 -4.527693 0 
C -4.527693 1.200758 -4.050626 2.352498 -3.201562 3.201562 
C -2.352498 4.050626 -1.200758 4.527693 0 4.527693 
z
" style="stroke: #ffffff; stroke-width: 1.4"/>
     </defs>
     <g>
      <use xlink:href="#ma46510d980" x="478.598197" y="382.579165" style="fill: #b4573d; stroke: #ffffff; stroke-width: 1.4"/>
     </g>
    </g>
    <g id="text_24">
     <!-- Nowcast vigente -->
     <g transform="translate(495.158197 384.994165) scale(0.092 -0.092)">
      <defs>
       <path id="DejaVuSans-77" d="M 269 3500 
L 844 3500 
L 1563 769 
L 2278 3500 
L 2956 3500 
L 3675 769 
L 4391 3500 
L 4966 3500 
L 4050 0 
L 3372 0 
L 2619 2869 
L 1863 0 
L 1184 0 
L 269 3500 
z
" transform="scale(0.015625)"/>
       <path id="DejaVuSans-67" d="M 2906 1791 
Q 2906 2416 2648 2759 
Q 2391 3103 1925 3103 
Q 1463 3103 1205 2759 
Q 947 2416 947 1791 
Q 947 1169 1205 825 
Q 1463 481 1925 481 
Q 2391 481 2648 825 
Q 2906 1169 2906 1791 
z
M 3481 434 
Q 3481 -459 3084 -895 
Q 2688 -1331 1869 -1331 
Q 1566 -1331 1297 -1286 
Q 1028 -1241 775 -1147 
L 775 -588 
Q 1028 -725 1275 -790 
Q 1522 -856 1778 -856 
Q 2344 -856 2625 -561 
Q 2906 -266 2906 331 
L 2906 616 
Q 2728 306 2450 153 
Q 2172 0 1784 0 
Q 1141 0 747 490 
Q 353 981 353 1791 
Q 353 2603 747 3093 
Q 1141 3584 1784 3584 
Q 2172 3584 2450 3431 
Q 2728 3278 2906 2969 
L 2906 3500 
L 3481 3500 
L 3481 434 
z
" transform="scale(0.015625)"/>
      </defs>
      <use xlink:href="#DejaVuSans-4e"/>
      <use xlink:href="#DejaVuSans-6f" transform="translate(74.804688 0)"/>
      <use xlink:href="#DejaVuSans-77" transform="translate(135.986328 0)"/>
      <use xlink:href="#DejaVuSans-63" transform="translate(217.773438 0)"/>
      <use xlink:href="#DejaVuSans-61" transform="translate(272.753906 0)"/>
      <use xlink:href="#DejaVuSans-73" transform="translate(334.033203 0)"/>
      <use xlink:href="#DejaVuSans-74" transform="translate(386.132812 0)"/>
      <use xlink:href="#DejaVuSans-20" transform="translate(425.341797 0)"/>
      <use xlink:href="#DejaVuSans-76" transform="translate(457.128906 0)"/>
      <use xlink:href="#DejaVuSans-69" transform="translate(516.308594 0)"/>
      <use xlink:href="#DejaVuSans-67" transform="translate(544.091797 0)"/>
      <use xlink:href="#DejaVuSans-65" transform="translate(607.568359 0)"/>
      <use xlink:href="#DejaVuSans-6e" transform="translate(669.091797 0)"/>
      <use xlink:href="#DejaVuSans-74" transform="translate(732.470703 0)"/>
      <use xlink:href="#DejaVuSans-65" transform="translate(771.679688 0)"/>
     </g>
    </g>
   </g>
   <g id="PathCollection_2">
    <g clip-path="url(#p683734b0ae)">
     <use xlink:href="#ma46510d980" x="836.779042" y="204.055748" style="fill: #b4573d; stroke: #ffffff; stroke-width: 1.4"/>
    </g>
   </g>
  </g>
  <g id="text_25">
   <!-- Fuente: elaboración propia con datos procesados del proyecto IMACEC. -->
   <g style="fill: #65717e" transform="translate(7.2 414.34) scale(0.082 -0.082)">
    <defs>
     <path id="DejaVuSans-46" d="M 628 4666 
L 3309 4666 
L 3309 4134 
L 1259 4134 
L 1259 2759 
L 3109 2759 
L 3109 2228 
L 1259 2228 
L 1259 0 
L 628 0 
L 628 4666 
z
" transform="scale(0.015625)"/>
     <path id="DejaVuSans-4d" d="M 628 4666 
L 1569 4666 
L 2759 1491 
L 3956 4666 
L 4897 4666 
L 4897 0 
L 4281 0 
L 4281 4097 
L 3078 897 
L 2444 897 
L 1241 4097 
L 1241 0 
L 628 0 
L 628 4666 
z
" transform="scale(0.015625)"/>
     <path id="DejaVuSans-43" d="M 4122 4306 
L 4122 3641 
Q 3803 3938 3442 4084 
Q 3081 4231 2675 4231 
Q 1875 4231 1450 3742 
Q 1025 3253 1025 2328 
Q 1025 1406 1450 917 
Q 1875 428 2675 428 
Q 3081 428 3442 575 
Q 3803 722 4122 1019 
L 4122 359 
Q 3791 134 3420 21 
Q 3050 -91 2638 -91 
Q 1578 -91 968 557 
Q 359 1206 359 2328 
Q 359 3453 968 4101 
Q 1578 4750 2638 4750 
Q 3056 4750 3426 4639 
Q 3797 4528 4122 4306 
z
" transform="scale(0.015625)"/>
    </defs>
    <use xlink:href="#DejaVuSans-46"/>
    <use xlink:href="#DejaVuSans-75" transform="translate(52.019531 0)"/>
    <use xlink:href="#DejaVuSans-65" transform="translate(115.398438 0)"/>
    <use xlink:href="#DejaVuSans-6e" transform="translate(176.921875 0)"/>
    <use xlink:href="#DejaVuSans-74" transform="translate(240.300781 0)"/>
    <use xlink:href="#DejaVuSans-65" transform="translate(279.509766 0)"/>
    <use xlink:href="#DejaVuSans-3a" transform="translate(341.033203 0)"/>
    <use xlink:href="#DejaVuSans-20" transform="translate(374.724609 0)"/>
    <use xlink:href="#DejaVuSans-65" transform="translate(406.511719 0)"/>
    <use xlink:href="#DejaVuSans-6c" transform="translate(468.035156 0)"/>
    <use xlink:href="#DejaVuSans-61" transform="translate(495.818359 0)"/>
    <use xlink:href="#DejaVuSans-62" transform="translate(557.097656 0)"/>
    <use xlink:href="#DejaVuSans-6f" transform="translate(620.574219 0)"/>
    <use xlink:href="#DejaVuSans-72" transform="translate(681.755859 0)"/>
    <use xlink:href="#DejaVuSans-61" transform="translate(722.869141 0)"/>
    <use xlink:href="#DejaVuSans-63" transform="translate(784.148438 0)"/>
    <use xlink:href="#DejaVuSans-69" transform="translate(839.128906 0)"/>
    <use xlink:href="#DejaVuSans-f3" transform="translate(866.912109 0)"/>
    <use xlink:href="#DejaVuSans-6e" transform="translate(928.09375 0)"/>
    <use xlink:href="#DejaVuSans-20" transform="translate(991.472656 0)"/>
    <use xlink:href="#DejaVuSans-70" transform="translate(1023.259766 0)"/>
    <use xlink:href="#DejaVuSans-72" transform="translate(1086.736328 0)"/>
    <use xlink:href="#DejaVuSans-6f" transform="translate(1125.599609 0)"/>
    <use xlink:href="#DejaVuSans-70" transform="translate(1186.78125 0)"/>
    <use xlink:href="#DejaVuSans-69" transform="translate(1250.257812 0)"/>
    <use xlink:href="#DejaVuSans-61" transform="translate(1278.041016 0)"/>
    <use xlink:href="#DejaVuSans-20" transform="translate(1339.320312 0)"/>
    <use xlink:href="#DejaVuSans-63" transform="translate(1371.107422 0)"/>
    <use xlink:href="#DejaVuSans-6f" transform="translate(1426.087891 0)"/>
    <use xlink:href="#DejaVuSans-6e" transform="translate(1487.269531 0)"/>
    <use xlink:href="#DejaVuSans-20" transform="translate(1550.648438 0)"/>
    <use xlink:href="#DejaVuSans-64" transform="translate(1582.435547 0)"/>
    <use xlink:href="#DejaVuSans-61" transform="translate(1645.912109 0)"/>
    <use xlink:href="#DejaVuSans-74" transform="translate(1707.191406 0)"/>
    <use xlink:href="#DejaVuSans-6f" transform="translate(1746.400391 0)"/>
    <use xlink:href="#DejaVuSans-73" transform="translate(1807.582031 0)"/>
    <use xlink:href="#DejaVuSans-20" transform="translate(1859.681641 0)"/>
    <use xlink:href="#DejaVuSans-70" transform="translate(1891.46875 0)"/>
    <use xlink:href="#DejaVuSans-72" transform="translate(1954.945312 0)"/>
    <use xlink:href="#DejaVuSans-6f" transform="translate(1993.808594 0)"/>
    <use xlink:href="#DejaVuSans-63" transform="translate(2054.990234 0)"/>
    <use xlink:href="#DejaVuSans-65" transform="translate(2109.970703 0)"/>
    <use xlink:href="#DejaVuSans-73" transform="translate(2171.494141 0)"/>
    <use xlink:href="#DejaVuSans-61" transform="translate(2223.59375 0)"/>
    <use xlink:href="#DejaVuSans-64" transform="translate(2284.873047 0)"/>
    <use xlink:href="#DejaVuSans-6f" transform="translate(2348.349609 0)"/>
    <use xlink:href="#DejaVuSans-73" transform="translate(2409.53125 0)"/>
    <use xlink:href="#DejaVuSans-20" transform="translate(2461.630859 0)"/>
    <use xlink:href="#DejaVuSans-64" transform="translate(2493.417969 0)"/>
    <use xlink:href="#DejaVuSans-65" transform="translate(2556.894531 0)"/>
    <use xlink:href="#DejaVuSans-6c" transform="translate(2618.417969 0)"/>
    <use xlink:href="#DejaVuSans-20" transform="translate(2646.201172 0)"/>
    <use xlink:href="#DejaVuSans-70" transform="translate(2677.988281 0)"/>
    <use xlink:href="#DejaVuSans-72" transform="translate(2741.464844 0)"/>
    <use xlink:href="#DejaVuSans-6f" transform="translate(2780.328125 0)"/>
    <use xlink:href="#DejaVuSans-79" transform="translate(2841.509766 0)"/>
    <use xlink:href="#DejaVuSans-65" transform="translate(2900.689453 0)"/>
    <use xlink:href="#DejaVuSans-63" transform="translate(2962.212891 0)"/>
    <use xlink:href="#DejaVuSans-74" transform="translate(3017.193359 0)"/>
    <use xlink:href="#DejaVuSans-6f" transform="translate(3056.402344 0)"/>
    <use xlink:href="#DejaVuSans-20" transform="translate(3117.583984 0)"/>
    <use xlink:href="#DejaVuSans-49" transform="translate(3149.371094 0)"/>
    <use xlink:href="#DejaVuSans-4d" transform="translate(3178.863281 0)"/>
    <use xlink:href="#DejaVuSans-41" transform="translate(3265.142578 0)"/>
    <use xlink:href="#DejaVuSans-43" transform="translate(3331.800781 0)"/>
    <use xlink:href="#DejaVuSans-45" transform="translate(3401.625 0)"/>
    <use xlink:href="#DejaVuSans-43" transform="translate(3464.808594 0)"/>
    <use xlink:href="#DejaVuSans-2e" transform="translate(3534.632812 0)"/>
   </g>
  </g>
 </g>
 <defs>
  <clipPath id="p683734b0ae">
   <rect x="60.9536" y="44.117344" width="793.503944" height="276.1968"/>
  </clipPath>
 </defs>
</svg>
